<svg id="svg" version="1.1" xmlns="http://www.w3.org/2000/svg" xmlns:xlink="http://www.w3.org/1999/xlink" width="400" height="164.0677966101695" viewBox="0, 0, 400,164.0677966101695"><g id="svgg"><path id="path0" d="M103.966 6.821 C 103.939 6.885,102.979 7.431,101.833 8.034 C 95.286 11.476,86.185 17.441,79.334 22.779 C 76.951 24.635,72.396 28.242,72.333 28.322 C 72.287 28.380,71.650 28.912,70.917 29.505 C 68.711 31.288,61.015 37.940,60.500 38.508 C 60.454 38.559,59.667 39.266,58.750 40.079 C 57.833 40.893,56.483 42.127,55.750 42.821 C 55.016 43.515,53.254 45.170,51.833 46.497 C 49.032 49.115,34.821 63.272,32.004 66.250 C 29.405 68.999,27.894 70.602,26.425 72.169 C 25.696 72.947,24.604 74.108,23.999 74.750 C 22.708 76.119,15.598 83.965,12.822 87.084 C 9.888 90.380,3.001 98.312,1.193 100.479 L 0.167 101.707 0.199 111.729 C 0.219 118.023,0.270 120.727,0.338 119.000 C 0.463 115.809,0.395 116.134,0.917 116.265 C 1.157 116.325,1.333 116.298,1.333 116.199 C 1.333 116.106,1.633 115.979,1.999 115.917 C 2.365 115.855,2.704 115.741,2.752 115.663 C 2.800 115.586,3.250 115.431,3.753 115.318 C 4.255 115.206,4.667 115.061,4.667 114.996 C 4.667 114.932,5.117 114.783,5.667 114.667 C 6.217 114.550,6.667 114.400,6.667 114.333 C 6.667 114.267,7.117 114.117,7.667 114.000 C 8.217 113.883,8.667 113.733,8.667 113.665 C 8.667 113.598,8.967 113.495,9.333 113.436 C 9.700 113.377,10.000 113.269,10.000 113.195 C 10.000 113.122,10.487 112.964,11.083 112.846 C 11.679 112.727,12.167 112.582,12.167 112.522 C 12.167 112.398,13.371 112.000,13.747 112.000 C 13.886 112.000,14.000 111.940,14.000 111.868 C 14.000 111.795,14.452 111.635,15.004 111.513 C 15.555 111.390,16.041 111.236,16.082 111.169 C 16.123 111.102,16.609 110.952,17.162 110.834 C 17.714 110.717,18.167 110.565,18.167 110.496 C 18.167 110.427,18.429 110.321,18.750 110.261 C 19.071 110.201,19.333 110.076,19.333 109.983 C 19.333 109.890,19.400 109.855,19.482 109.906 C 19.564 109.956,19.899 109.886,20.227 109.749 C 20.555 109.612,21.013 109.500,21.245 109.500 C 21.477 109.500,21.667 109.431,21.667 109.347 C 21.667 109.263,22.055 109.111,22.530 109.009 C 23.005 108.907,23.474 108.763,23.572 108.688 C 23.670 108.613,24.125 108.457,24.583 108.341 C 25.042 108.225,25.642 108.034,25.917 107.916 C 26.192 107.798,26.665 107.649,26.970 107.585 C 27.274 107.521,27.724 107.364,27.970 107.235 C 28.215 107.107,28.548 107.002,28.708 107.001 C 28.869 107.000,29.000 106.940,29.000 106.868 C 29.000 106.795,29.469 106.634,30.042 106.510 C 30.615 106.386,31.273 106.190,31.506 106.073 C 31.738 105.957,32.207 105.810,32.547 105.746 C 32.888 105.682,33.167 105.573,33.167 105.504 C 33.167 105.435,33.619 105.283,34.172 105.166 C 34.724 105.048,35.213 104.893,35.258 104.821 C 35.302 104.748,35.750 104.597,36.253 104.485 C 36.755 104.372,37.167 104.226,37.167 104.159 C 37.167 104.092,37.654 103.946,38.250 103.833 C 38.846 103.721,39.333 103.569,39.333 103.496 C 39.333 103.423,39.633 103.312,40.000 103.250 C 40.367 103.188,40.667 103.083,40.667 103.016 C 40.667 102.949,41.154 102.798,41.750 102.679 C 42.346 102.561,42.833 102.407,42.833 102.338 C 42.833 102.269,43.283 102.117,43.833 102.000 C 44.383 101.883,44.833 101.732,44.833 101.663 C 44.833 101.594,45.322 101.446,45.919 101.333 C 46.516 101.220,47.042 101.067,47.088 100.992 C 47.135 100.917,47.584 100.764,48.086 100.651 C 48.589 100.539,49.000 100.390,49.000 100.321 C 49.000 100.252,49.300 100.145,49.667 100.083 C 50.033 100.021,50.333 99.898,50.333 99.809 C 50.333 99.720,50.412 99.695,50.507 99.755 C 50.603 99.814,50.772 99.787,50.882 99.696 C 50.993 99.605,51.365 99.477,51.710 99.413 C 52.055 99.348,52.379 99.228,52.430 99.145 C 52.481 99.062,52.596 99.040,52.685 99.095 C 52.775 99.150,52.938 99.123,53.049 99.034 C 53.160 98.945,53.494 98.820,53.792 98.756 C 54.090 98.692,54.333 98.588,54.333 98.525 C 54.333 98.461,54.837 98.314,55.453 98.197 C 56.069 98.080,56.613 97.922,56.662 97.846 C 56.710 97.769,57.181 97.611,57.708 97.494 C 58.235 97.376,58.667 97.224,58.667 97.155 C 58.667 97.086,58.985 96.978,59.375 96.915 C 59.765 96.852,60.412 96.658,60.813 96.483 C 61.214 96.309,61.705 96.167,61.905 96.167 C 62.104 96.167,62.338 96.098,62.425 96.013 C 62.512 95.929,62.996 95.746,63.500 95.606 C 64.680 95.279,65.950 94.856,66.583 94.579 C 66.858 94.459,67.383 94.307,67.750 94.242 C 68.117 94.177,68.492 94.070,68.583 94.004 C 68.675 93.939,69.125 93.790,69.583 93.674 C 70.042 93.559,70.653 93.359,70.942 93.232 C 71.231 93.104,71.587 93.000,71.734 93.000 C 71.880 93.000,72.000 92.917,72.000 92.816 C 72.000 92.714,72.110 92.673,72.245 92.725 C 72.379 92.777,72.528 92.756,72.576 92.678 C 72.624 92.601,72.945 92.485,73.290 92.421 C 73.635 92.356,73.992 92.244,74.083 92.171 C 74.175 92.099,74.737 91.922,75.333 91.779 C 76.496 91.499,77.876 91.067,78.417 90.813 C 78.600 90.727,79.144 90.547,79.625 90.412 C 80.106 90.277,80.894 90.056,81.375 89.922 C 81.856 89.787,82.400 89.606,82.583 89.520 C 83.124 89.266,85.725 88.498,86.042 88.499 C 86.202 88.500,86.333 88.435,86.333 88.356 C 86.333 88.277,86.783 88.117,87.333 88.000 C 87.883 87.883,88.333 87.736,88.333 87.674 C 88.333 87.611,88.821 87.458,89.417 87.333 C 90.013 87.209,90.500 87.056,90.500 86.993 C 90.500 86.930,90.950 86.783,91.500 86.667 C 92.050 86.550,92.500 86.399,92.500 86.332 C 92.500 86.264,92.815 86.159,93.200 86.097 C 93.585 86.036,93.990 85.911,94.099 85.820 C 94.209 85.729,94.362 85.670,94.441 85.687 C 94.519 85.705,94.696 85.677,94.833 85.624 C 95.642 85.316,97.902 84.667,98.167 84.667 C 98.339 84.667,98.522 84.599,98.573 84.517 C 98.624 84.434,99.060 84.274,99.541 84.162 C 100.023 84.049,100.492 83.900,100.583 83.831 C 100.675 83.762,101.013 83.649,101.333 83.581 C 101.654 83.513,102.806 83.167,103.894 82.812 C 104.981 82.457,105.975 82.167,106.102 82.167 C 106.229 82.167,106.333 82.092,106.333 82.000 C 106.333 81.908,106.462 81.833,106.620 81.833 C 107.091 81.833,108.667 81.433,108.667 81.314 C 108.667 81.253,109.154 81.106,109.750 80.988 C 110.346 80.869,110.833 80.721,110.833 80.659 C 110.833 80.597,111.283 80.450,111.833 80.333 C 112.383 80.217,112.833 80.056,112.833 79.977 C 112.833 79.898,113.040 79.830,113.292 79.826 C 113.544 79.822,114.050 79.704,114.417 79.565 C 114.783 79.425,115.380 79.237,115.743 79.147 C 116.106 79.056,116.481 78.919,116.577 78.840 C 116.672 78.762,117.219 78.606,117.792 78.494 C 118.365 78.382,118.833 78.232,118.833 78.160 C 118.833 78.089,119.358 77.936,120.000 77.822 C 120.642 77.707,121.167 77.559,121.167 77.492 C 121.167 77.426,121.654 77.279,122.250 77.167 C 122.846 77.054,123.333 76.904,123.333 76.833 C 123.333 76.762,123.615 76.655,123.958 76.596 C 124.302 76.537,125.108 76.332,125.750 76.140 C 127.135 75.725,127.220 75.703,127.349 75.730 C 127.404 75.741,127.554 75.665,127.683 75.561 C 127.811 75.456,128.235 75.318,128.625 75.254 C 129.015 75.190,129.333 75.081,129.333 75.013 C 129.333 74.945,129.427 74.881,129.542 74.871 C 129.937 74.838,131.251 74.494,131.583 74.336 C 131.895 74.189,132.354 74.057,134.792 73.414 C 135.319 73.275,135.872 73.092,136.021 73.008 C 136.170 72.925,136.564 72.805,136.896 72.743 C 137.228 72.681,137.500 72.560,137.500 72.474 C 137.500 72.389,137.594 72.334,137.708 72.352 C 137.823 72.371,138.029 72.348,138.167 72.301 C 138.304 72.254,138.867 72.100,139.417 71.958 C 139.967 71.817,140.829 71.574,141.333 71.419 C 141.837 71.264,142.737 71.006,143.333 70.847 C 143.929 70.687,144.529 70.513,144.667 70.460 C 145.368 70.187,146.091 70.000,146.442 70.000 C 146.657 70.000,146.833 69.933,146.833 69.852 C 146.833 69.771,147.321 69.612,147.917 69.500 C 148.512 69.388,149.000 69.237,149.000 69.164 C 149.000 69.056,150.354 68.717,151.125 68.634 C 151.240 68.621,151.333 68.557,151.333 68.491 C 151.333 68.425,151.671 68.321,152.083 68.259 C 152.496 68.197,152.833 68.093,152.833 68.028 C 152.833 67.963,153.337 67.814,153.953 67.697 C 154.569 67.580,155.113 67.424,155.162 67.350 C 155.210 67.275,155.775 67.116,156.417 66.995 C 157.058 66.873,157.658 66.721,157.750 66.655 C 157.842 66.590,158.367 66.444,158.917 66.332 C 159.467 66.220,159.954 66.076,160.000 66.013 C 160.046 65.950,160.421 65.817,160.833 65.718 C 162.868 65.226,163.924 64.929,164.000 64.828 C 164.046 64.767,164.196 64.710,164.333 64.701 C 164.799 64.670,166.249 64.296,166.417 64.163 C 166.508 64.091,167.071 63.937,167.667 63.822 C 168.262 63.707,168.788 63.557,168.834 63.488 C 169.001 63.239,170.001 63.827,170.325 64.366 C 170.790 65.137,171.180 65.657,171.683 66.178 C 171.921 66.424,172.155 66.729,172.204 66.854 C 172.252 66.980,172.790 67.758,173.398 68.583 C 175.081 70.868,175.225 71.054,175.583 71.426 C 175.767 71.615,176.029 71.991,176.167 72.260 C 176.304 72.530,176.548 72.895,176.708 73.073 C 176.869 73.251,177.000 73.477,177.000 73.575 C 177.000 73.673,177.150 73.847,177.333 73.961 C 177.517 74.076,177.667 74.247,177.667 74.342 C 177.667 74.520,177.724 74.600,178.419 75.384 C 178.647 75.640,178.833 75.922,178.833 76.009 C 178.833 76.096,178.948 76.298,179.088 76.458 C 179.939 77.435,180.167 77.731,180.167 77.858 C 180.167 77.936,180.320 78.169,180.508 78.375 C 181.159 79.092,181.280 79.252,181.384 79.542 C 181.442 79.702,181.567 79.833,181.661 79.833 C 181.756 79.833,181.833 79.927,181.834 80.042 C 181.834 80.156,182.002 80.449,182.209 80.693 C 182.415 80.936,182.696 81.302,182.833 81.506 C 183.702 82.791,184.699 84.149,185.069 84.548 C 185.306 84.804,185.500 85.071,185.500 85.142 C 185.500 85.213,185.631 85.418,185.792 85.598 C 186.183 86.037,187.167 87.447,187.167 87.569 C 187.167 87.623,187.298 87.805,187.458 87.975 C 187.619 88.144,187.895 88.486,188.073 88.735 C 188.251 88.984,188.535 89.348,188.705 89.545 C 188.876 89.741,189.175 90.168,189.371 90.493 C 189.567 90.817,190.014 91.431,190.364 91.856 C 190.714 92.282,191.000 92.675,191.000 92.731 C 191.000 92.787,191.131 92.972,191.292 93.141 C 191.452 93.311,191.733 93.661,191.917 93.921 C 192.207 94.332,192.546 94.761,193.594 96.044 C 193.725 96.205,193.833 96.383,193.833 96.438 C 193.833 96.534,194.559 97.446,195.088 98.014 C 195.223 98.159,195.333 98.327,195.333 98.386 C 195.333 98.445,195.577 98.753,195.875 99.069 C 196.173 99.386,196.622 99.941,196.873 100.304 L 197.329 100.964 198.373 100.704 C 198.947 100.562,199.454 100.392,199.500 100.328 C 199.546 100.264,199.771 100.157,200.000 100.091 C 200.423 99.969,203.500 98.806,204.417 98.421 C 204.693 98.306,205.161 98.158,205.459 98.092 C 205.757 98.027,206.000 97.919,206.000 97.852 C 206.000 97.785,206.394 97.629,206.875 97.507 C 207.356 97.384,207.900 97.188,208.083 97.071 C 208.267 96.954,208.698 96.807,209.042 96.744 C 209.385 96.681,209.667 96.563,209.667 96.481 C 209.667 96.400,209.744 96.333,209.839 96.333 C 210.015 96.333,213.490 95.003,214.442 94.571 C 214.731 94.441,215.054 94.333,215.159 94.333 C 215.265 94.333,215.685 94.181,216.092 93.996 C 216.500 93.810,217.058 93.613,217.333 93.558 C 217.608 93.503,217.833 93.396,217.833 93.320 C 217.833 93.244,218.096 93.133,218.417 93.072 C 218.737 93.012,219.000 92.896,219.000 92.815 C 219.000 92.733,219.056 92.679,219.125 92.694 C 219.194 92.708,219.461 92.633,219.719 92.527 C 219.977 92.420,220.296 92.333,220.428 92.333 C 220.559 92.333,220.667 92.267,220.667 92.186 C 220.667 92.106,221.022 91.950,221.456 91.841 C 221.890 91.731,222.322 91.582,222.414 91.509 C 222.507 91.436,222.883 91.281,223.250 91.163 C 223.617 91.046,224.067 90.856,224.250 90.741 C 224.433 90.626,224.827 90.482,225.125 90.420 C 225.423 90.358,225.667 90.246,225.667 90.172 C 225.667 90.098,225.929 89.988,226.250 89.928 C 226.571 89.867,226.833 89.756,226.833 89.679 C 226.833 89.602,227.189 89.450,227.623 89.341 C 228.057 89.231,228.488 89.082,228.581 89.009 C 228.674 88.936,229.050 88.782,229.417 88.667 C 229.783 88.551,230.158 88.401,230.250 88.333 C 230.342 88.266,230.717 88.116,231.083 88.000 C 231.450 87.884,231.825 87.732,231.917 87.662 C 232.008 87.592,232.402 87.440,232.792 87.324 C 233.181 87.209,233.500 87.060,233.500 86.994 C 233.500 86.929,233.725 86.830,234.000 86.775 C 234.275 86.720,234.833 86.523,235.241 86.338 C 235.648 86.152,236.061 86.000,236.158 86.000 C 236.254 86.000,236.333 85.917,236.333 85.816 C 236.333 85.714,236.437 85.671,236.563 85.719 C 236.689 85.768,236.873 85.727,236.972 85.628 C 237.071 85.529,237.381 85.455,237.662 85.463 C 238.203 85.479,238.478 85.688,240.309 87.472 C 240.905 88.053,241.645 88.721,241.954 88.956 C 242.263 89.192,242.911 89.767,243.394 90.234 C 243.878 90.701,244.662 91.421,245.138 91.833 C 245.613 92.246,246.409 92.958,246.907 93.417 C 247.404 93.875,248.017 94.400,248.268 94.583 C 248.519 94.767,249.043 95.217,249.431 95.583 C 250.106 96.220,250.594 96.640,252.083 97.867 C 252.450 98.169,253.012 98.660,253.333 98.957 C 253.654 99.254,253.968 99.498,254.030 99.499 C 254.092 99.499,254.411 99.744,254.738 100.042 C 255.066 100.340,255.540 100.746,255.792 100.945 C 256.044 101.144,256.512 101.519,256.833 101.778 C 257.154 102.038,257.492 102.307,257.583 102.377 C 257.675 102.448,257.960 102.692,258.217 102.919 C 258.474 103.147,258.792 103.333,258.925 103.333 C 259.058 103.333,259.167 103.405,259.167 103.493 C 259.167 103.581,259.692 104.045,260.333 104.523 C 260.975 105.002,261.500 105.455,261.500 105.530 C 261.500 105.605,261.603 105.667,261.730 105.667 C 261.856 105.667,262.052 105.778,262.165 105.915 C 262.278 106.051,262.423 106.131,262.487 106.091 C 262.551 106.052,262.785 106.240,263.008 106.510 C 263.231 106.779,263.510 107.000,263.628 107.000 C 263.747 107.000,263.887 107.112,263.940 107.250 C 264.095 107.655,264.751 107.548,265.003 107.078 C 265.128 106.844,265.327 106.693,265.448 106.739 C 265.568 106.785,265.667 106.750,265.667 106.661 C 265.667 106.573,265.775 106.500,265.908 106.500 C 266.041 106.500,266.210 106.406,266.283 106.291 C 266.357 106.177,266.642 105.970,266.917 105.833 C 267.192 105.696,267.492 105.523,267.583 105.448 C 267.736 105.325,268.208 105.014,269.083 104.461 C 269.267 104.345,269.477 104.156,269.550 104.042 C 269.623 103.927,269.787 103.833,269.913 103.833 C 270.039 103.833,270.246 103.731,270.371 103.605 C 270.497 103.479,270.821 103.259,271.091 103.115 C 271.362 102.971,271.799 102.663,272.062 102.431 C 272.325 102.199,272.682 101.965,272.854 101.910 C 273.026 101.856,273.167 101.750,273.167 101.676 C 273.167 101.601,273.392 101.447,273.667 101.333 C 273.942 101.219,274.167 101.069,274.167 101.000 C 274.167 100.931,274.390 100.781,274.662 100.669 C 274.935 100.556,275.336 100.298,275.554 100.096 C 275.773 99.893,276.225 99.598,276.559 99.439 C 276.893 99.281,277.167 99.080,277.167 98.992 C 277.167 98.905,277.247 98.833,277.344 98.833 C 277.442 98.833,277.768 98.646,278.069 98.417 C 278.369 98.188,278.667 98.000,278.731 98.000 C 278.845 98.000,279.071 97.835,279.642 97.333 C 279.799 97.196,280.150 96.971,280.422 96.833 C 280.694 96.696,281.062 96.452,281.240 96.292 C 281.417 96.131,281.627 96.000,281.705 96.000 C 281.783 96.000,281.938 95.922,282.049 95.827 C 282.578 95.372,284.346 94.167,284.483 94.167 C 284.569 94.167,284.664 94.110,284.694 94.042 C 284.725 93.973,285.087 93.692,285.500 93.417 C 285.912 93.142,286.395 92.785,286.573 92.625 C 286.751 92.465,286.960 92.333,287.038 92.333 C 287.117 92.333,287.271 92.258,287.382 92.166 C 287.773 91.842,289.753 90.494,290.000 90.386 C 290.137 90.325,290.310 90.176,290.383 90.054 C 290.457 89.933,290.591 89.833,290.682 89.833 C 290.773 89.833,291.249 89.537,291.740 89.174 C 292.986 88.254,293.391 88.179,293.896 88.775 C 294.118 89.036,294.438 89.413,294.608 89.612 C 294.778 89.810,295.179 90.292,295.500 90.682 C 297.825 93.508,302.281 97.837,304.750 99.668 C 305.117 99.940,305.507 100.239,305.618 100.331 C 305.729 100.424,305.897 100.500,305.992 100.500 C 306.086 100.500,306.258 100.650,306.372 100.833 C 306.487 101.017,306.649 101.167,306.733 101.167 C 306.817 101.167,307.131 101.354,307.431 101.583 C 307.732 101.813,308.052 102.000,308.144 102.000 C 308.235 102.000,308.411 102.094,308.534 102.208 C 308.965 102.608,309.759 103.121,310.128 103.238 C 310.333 103.303,310.500 103.414,310.500 103.485 C 310.500 103.555,310.800 103.712,311.167 103.833 C 311.533 103.954,311.833 104.113,311.833 104.187 C 311.833 104.260,312.133 104.410,312.500 104.520 C 312.867 104.630,313.167 104.783,313.167 104.860 C 313.167 104.937,313.255 105.000,313.364 105.000 C 313.473 105.000,313.866 105.146,314.239 105.325 C 315.212 105.791,315.898 106.058,316.042 106.027 C 316.110 106.012,316.167 106.075,316.167 106.167 C 316.167 106.258,316.298 106.336,316.458 106.339 C 316.619 106.342,317.050 106.490,317.417 106.667 C 317.783 106.844,318.179 106.991,318.296 106.994 C 318.413 106.997,318.914 107.143,319.410 107.317 C 319.905 107.491,320.635 107.688,321.031 107.754 C 321.426 107.820,321.787 107.927,321.833 107.991 C 321.951 108.156,324.237 108.619,326.500 108.936 C 327.554 109.084,328.567 109.269,328.750 109.348 C 329.631 109.726,340.773 110.094,342.481 109.801 C 342.904 109.729,344.375 109.598,345.750 109.511 C 349.305 109.286,357.779 108.256,358.500 107.961 C 358.637 107.905,359.305 107.783,359.984 107.690 C 360.663 107.596,361.263 107.451,361.317 107.367 C 361.422 107.205,363.296 106.127,364.000 105.823 C 364.229 105.724,364.529 105.545,364.666 105.425 C 364.804 105.305,365.104 105.150,365.333 105.081 C 365.563 105.012,365.787 104.906,365.833 104.845 C 365.879 104.784,366.817 104.217,367.917 103.583 C 369.017 102.950,370.016 102.334,370.137 102.216 C 370.258 102.097,370.442 102.000,370.545 102.000 C 370.707 102.000,371.932 101.243,372.167 100.997 C 372.212 100.949,372.456 100.819,372.708 100.709 C 372.960 100.598,373.167 100.431,373.167 100.337 C 373.167 100.243,373.275 100.167,373.408 100.167 C 373.541 100.167,373.723 100.036,373.813 99.876 C 373.902 99.717,374.028 99.640,374.094 99.705 C 374.159 99.770,374.420 99.676,374.674 99.495 C 374.927 99.314,375.183 99.167,375.241 99.167 C 375.300 99.167,375.438 99.090,375.549 98.997 C 376.331 98.337,376.580 98.164,376.882 98.068 C 377.221 97.960,377.421 97.825,377.977 97.326 C 378.135 97.185,378.505 96.969,378.799 96.848 C 379.093 96.726,379.333 96.560,379.333 96.480 C 379.333 96.399,379.414 96.333,379.511 96.333 C 379.609 96.333,380.303 95.897,381.053 95.365 C 381.803 94.832,382.792 94.179,383.250 93.915 C 383.708 93.650,384.143 93.336,384.217 93.217 C 384.290 93.097,384.432 93.000,384.533 93.000 C 384.633 93.000,385.023 92.750,385.400 92.444 C 385.776 92.138,386.646 91.523,387.333 91.076 C 388.021 90.629,388.643 90.167,388.717 90.049 C 388.790 89.930,388.961 89.833,389.097 89.833 C 389.233 89.833,389.387 89.721,389.440 89.583 C 389.492 89.446,389.626 89.333,389.736 89.333 C 389.847 89.333,390.083 89.198,390.260 89.033 C 390.971 88.373,391.656 88.077,391.962 88.296 C 392.121 88.409,392.363 88.554,392.500 88.617 C 392.637 88.680,392.831 88.811,392.929 88.907 C 393.027 89.004,393.355 89.271,393.657 89.500 C 393.960 89.729,394.327 90.048,394.474 90.208 C 394.621 90.369,394.837 90.500,394.954 90.500 C 395.071 90.500,395.167 90.559,395.167 90.631 C 395.167 90.703,395.560 91.056,396.042 91.415 C 397.233 92.303,397.306 92.363,397.708 92.792 C 397.902 92.998,398.124 93.167,398.202 93.167 C 398.281 93.167,398.550 93.377,398.802 93.635 C 399.879 94.737,399.833 94.976,399.833 88.245 C 399.833 84.902,399.793 82.167,399.743 82.167 C 399.633 82.167,398.480 83.017,396.167 84.802 C 394.050 86.435,392.335 87.673,391.937 87.854 C 391.596 88.010,391.071 87.664,386.807 84.472 C 378.272 78.085,371.490 73.372,365.363 69.571 C 364.783 69.211,364.063 68.758,363.764 68.565 C 362.310 67.625,357.200 64.681,354.333 63.133 C 349.784 60.675,342.469 57.333,341.638 57.333 C 341.291 57.333,337.048 59.816,331.813 63.082 C 331.665 63.174,331.327 63.375,331.063 63.527 C 330.799 63.679,329.571 64.442,328.333 65.223 C 327.096 66.004,325.333 67.112,324.417 67.686 C 322.768 68.719,320.587 70.131,315.083 73.729 C 312.291 75.555,299.785 83.894,295.605 86.718 C 294.426 87.515,293.401 88.167,293.327 88.167 C 293.030 88.167,289.010 82.520,282.945 73.583 C 280.823 70.456,279.897 69.156,279.533 68.792 C 279.217 68.476,279.179 68.485,276.731 69.466 C 270.361 72.018,267.056 73.353,266.750 73.499 C 266.404 73.662,263.539 74.846,260.500 76.080 C 255.831 77.976,254.880 78.366,254.417 78.578 C 253.940 78.796,252.184 79.520,248.333 81.089 C 245.626 82.192,242.470 83.495,241.917 83.738 C 241.642 83.859,240.608 84.281,239.619 84.676 L 237.821 85.395 236.786 84.403 C 236.216 83.858,234.850 82.550,233.750 81.498 C 225.201 73.317,205.824 54.150,205.930 53.979 C 206.045 53.792,205.904 53.794,205.539 53.985 C 205.380 54.069,202.175 54.897,198.417 55.825 C 191.799 57.461,188.636 58.269,183.750 59.575 C 182.467 59.918,181.042 60.298,180.583 60.418 C 178.086 61.077,177.101 61.344,175.667 61.754 C 174.796 62.002,173.708 62.303,173.250 62.421 C 172.792 62.539,171.762 62.818,170.962 63.041 L 169.507 63.446 169.195 63.098 C 169.024 62.907,168.294 61.962,167.573 61.000 C 166.853 60.038,165.677 58.500,164.960 57.583 C 164.244 56.667,163.078 55.176,162.370 54.270 C 161.663 53.364,161.007 52.539,160.913 52.437 C 160.820 52.334,160.445 51.877,160.080 51.421 C 157.261 47.897,155.040 45.266,151.510 41.266 C 148.323 37.655,148.218 37.544,143.420 32.740 C 139.624 28.938,137.829 27.263,134.167 24.104 C 127.469 18.327,118.917 12.830,111.667 9.640 C 108.449 8.225,104.053 6.615,103.966 6.821 " stroke="none" fill="#e4e4e4" fill-rule="evenodd"></path><path id="path1" d="M123.667 0.355 C 121.776 0.560,121.338 0.622,120.250 0.838 C 119.700 0.947,119.156 1.041,119.042 1.046 C 118.927 1.051,118.833 1.108,118.833 1.173 C 118.833 1.238,118.444 1.342,117.968 1.405 C 117.492 1.468,117.023 1.570,116.926 1.630 C 116.829 1.691,116.675 1.758,116.583 1.779 C 116.492 1.800,115.967 1.937,115.417 2.084 C 114.867 2.230,114.323 2.359,114.208 2.369 C 114.094 2.380,114.000 2.441,114.000 2.505 C 114.000 2.569,113.552 2.716,113.004 2.833 C 112.456 2.949,112.048 3.109,112.097 3.189 C 112.146 3.268,111.999 3.333,111.770 3.333 C 111.541 3.333,111.306 3.410,111.248 3.503 C 111.191 3.596,111.074 3.629,110.988 3.576 C 110.903 3.523,110.833 3.572,110.833 3.685 C 110.833 3.797,110.790 3.845,110.736 3.792 C 110.683 3.739,110.364 3.807,110.028 3.944 C 109.448 4.179,109.176 4.299,107.293 5.145 C 106.859 5.340,106.428 5.500,106.335 5.500 C 106.242 5.500,106.167 5.566,106.167 5.647 C 106.167 5.782,105.799 5.946,105.170 6.091 C 105.034 6.123,104.896 6.228,104.864 6.324 C 104.832 6.421,104.662 6.500,104.486 6.500 C 103.802 6.500,104.227 6.798,105.542 7.241 C 114.974 10.417,125.460 16.594,134.167 24.104 C 137.829 27.263,139.624 28.938,143.420 32.740 C 148.218 37.544,148.323 37.655,151.510 41.266 C 155.040 45.266,157.261 47.897,160.080 51.421 C 160.445 51.877,160.820 52.334,160.913 52.437 C 161.007 52.539,161.663 53.364,162.370 54.270 C 163.078 55.176,164.244 56.667,164.960 57.583 C 165.677 58.500,166.853 60.038,167.573 61.000 C 168.294 61.962,169.024 62.907,169.195 63.098 L 169.507 63.446 170.962 63.041 C 171.762 62.818,172.792 62.539,173.250 62.421 C 173.708 62.303,174.796 62.002,175.667 61.754 C 177.101 61.344,178.086 61.077,180.583 60.418 C 181.042 60.298,182.467 59.918,183.750 59.575 C 188.636 58.269,191.799 57.461,198.417 55.825 C 202.175 54.897,205.380 54.069,205.539 53.985 C 205.904 53.794,206.045 53.792,205.930 53.979 C 205.824 54.150,225.201 73.317,233.750 81.498 C 234.850 82.550,236.216 83.858,236.786 84.403 L 237.821 85.395 239.619 84.676 C 240.608 84.281,241.642 83.859,241.917 83.738 C 242.470 83.495,245.626 82.192,248.333 81.089 C 252.184 79.520,253.940 78.796,254.417 78.578 C 254.880 78.366,255.831 77.976,260.500 76.080 C 263.539 74.846,266.404 73.662,266.750 73.499 C 267.056 73.353,270.361 72.018,276.731 69.466 C 279.179 68.485,279.217 68.476,279.533 68.792 C 279.897 69.156,280.823 70.456,282.945 73.583 C 289.010 82.520,293.030 88.167,293.327 88.167 C 293.401 88.167,294.426 87.515,295.605 86.718 C 299.785 83.894,312.291 75.555,315.083 73.729 C 320.587 70.131,322.768 68.719,324.417 67.686 C 325.333 67.112,327.096 66.004,328.333 65.223 C 329.571 64.442,330.799 63.679,331.063 63.527 C 331.327 63.375,331.665 63.174,331.813 63.082 C 337.048 59.816,341.291 57.333,341.638 57.333 C 342.469 57.333,349.784 60.675,354.333 63.133 C 357.200 64.681,362.310 67.625,363.764 68.565 C 364.063 68.758,364.783 69.211,365.363 69.571 C 371.490 73.372,378.272 78.085,386.807 84.472 C 391.071 87.664,391.596 88.010,391.937 87.854 C 392.418 87.635,394.384 86.191,397.583 83.708 C 397.675 83.637,398.217 83.242,398.787 82.831 L 399.824 82.083 399.828 62.446 C 399.834 41.672,399.862 42.448,399.083 42.393 C 398.900 42.380,398.525 42.325,398.250 42.270 C 397.975 42.215,397.262 42.122,396.667 42.063 C 396.071 42.004,395.508 41.897,395.417 41.826 C 395.325 41.755,394.537 41.643,393.667 41.577 C 392.796 41.512,392.008 41.411,391.917 41.354 C 391.825 41.297,391.375 41.242,390.917 41.233 C 390.458 41.223,389.671 41.155,389.167 41.081 C 387.243 40.799,378.085 40.895,377.897 41.199 C 377.851 41.274,377.629 41.288,377.404 41.232 C 377.180 41.176,376.903 41.204,376.790 41.294 C 376.676 41.385,376.152 41.511,375.625 41.575 C 375.098 41.639,374.667 41.760,374.667 41.845 C 374.667 41.930,374.498 42.001,374.292 42.002 C 374.085 42.003,373.560 42.112,373.125 42.244 C 372.690 42.376,372.332 42.431,372.331 42.367 C 372.329 42.303,372.273 42.334,372.206 42.437 C 372.138 42.540,371.746 42.704,371.333 42.802 C 370.921 42.899,370.208 43.103,369.750 43.256 C 368.828 43.562,368.557 43.646,368.373 43.682 C 368.305 43.695,368.102 43.810,367.921 43.936 C 367.740 44.063,367.493 44.167,367.370 44.167 C 367.248 44.167,366.806 44.323,366.387 44.514 C 365.968 44.704,365.504 44.886,365.354 44.917 C 364.965 44.998,364.024 45.494,363.910 45.677 C 363.857 45.763,363.636 45.833,363.419 45.833 C 363.202 45.833,362.925 45.929,362.804 46.046 C 362.682 46.162,362.471 46.254,362.333 46.250 C 362.196 46.246,361.984 46.338,361.863 46.454 C 361.742 46.571,361.498 46.667,361.321 46.667 C 361.145 46.667,361.000 46.754,361.000 46.861 C 361.000 46.968,360.951 47.006,360.890 46.946 C 360.830 46.886,360.699 46.901,360.599 46.980 C 360.499 47.059,360.119 47.219,359.755 47.337 C 359.390 47.454,358.991 47.651,358.868 47.775 C 358.744 47.899,358.536 48.000,358.405 48.000 C 358.274 48.000,358.167 48.073,358.167 48.161 C 358.167 48.250,358.054 48.280,357.917 48.227 C 357.779 48.174,357.667 48.206,357.667 48.297 C 357.667 48.389,357.479 48.511,357.250 48.568 C 357.021 48.626,356.833 48.747,356.833 48.837 C 356.833 48.926,356.759 49.000,356.667 49.000 C 356.576 49.000,356.025 49.225,355.443 49.500 C 354.861 49.775,354.330 50.000,354.264 50.000 C 354.197 50.000,354.027 50.116,353.885 50.258 C 353.743 50.400,353.411 50.560,353.147 50.612 C 352.883 50.665,352.667 50.774,352.667 50.854 C 352.667 50.934,352.554 51.000,352.417 51.000 C 352.279 51.000,352.167 51.079,352.167 51.177 C 352.167 51.274,352.100 51.312,352.017 51.261 C 351.935 51.210,351.825 51.281,351.773 51.418 C 351.720 51.555,351.493 51.667,351.267 51.667 C 351.042 51.667,350.748 51.776,350.615 51.909 C 350.482 52.042,350.327 52.104,350.270 52.048 C 350.213 51.991,350.167 52.032,350.167 52.139 C 350.167 52.246,350.054 52.333,349.917 52.333 C 349.779 52.333,349.667 52.401,349.667 52.484 C 349.667 52.634,348.694 53.069,348.458 53.024 C 348.390 53.011,348.333 53.079,348.333 53.177 C 348.333 53.274,348.258 53.307,348.167 53.250 C 348.075 53.193,348.000 53.225,348.000 53.320 C 348.000 53.416,347.813 53.541,347.583 53.598 C 347.354 53.656,347.167 53.774,347.167 53.861 C 347.167 53.948,347.098 53.977,347.014 53.925 C 346.930 53.874,346.837 53.888,346.806 53.957 C 346.775 54.027,346.319 54.306,345.792 54.577 C 345.265 54.849,344.833 55.125,344.833 55.191 C 344.833 55.257,344.676 55.361,344.483 55.422 C 344.290 55.483,343.869 55.712,343.546 55.931 C 343.224 56.150,342.894 56.288,342.814 56.238 C 342.733 56.188,342.667 56.213,342.667 56.293 C 342.667 56.666,341.426 57.148,341.093 56.904 C 340.915 56.773,340.634 56.667,340.468 56.667 C 340.302 56.667,340.167 56.604,340.167 56.528 C 340.167 56.451,340.073 56.381,339.958 56.372 C 339.489 56.334,338.243 55.934,338.148 55.792 C 338.092 55.707,337.998 55.645,337.939 55.654 C 337.606 55.705,336.500 55.433,336.500 55.301 C 336.500 55.215,336.350 55.192,336.167 55.250 C 335.983 55.308,335.833 55.281,335.833 55.190 C 335.833 55.099,335.420 54.972,334.914 54.909 C 334.409 54.846,333.958 54.733,333.911 54.657 C 333.864 54.582,333.663 54.552,333.463 54.591 C 333.263 54.629,333.058 54.595,333.008 54.515 C 332.958 54.435,332.354 54.316,331.667 54.251 C 330.979 54.185,330.342 54.084,330.250 54.026 C 329.732 53.697,322.667 53.704,322.667 54.033 C 322.667 54.107,322.423 54.167,322.125 54.166 C 321.265 54.166,318.833 54.538,318.833 54.670 C 318.833 54.736,318.386 54.841,317.838 54.903 C 317.291 54.965,316.801 55.084,316.750 55.167 C 316.698 55.251,316.545 55.276,316.409 55.224 C 316.273 55.172,316.070 55.206,315.956 55.300 C 315.843 55.393,315.450 55.530,315.083 55.603 C 314.243 55.769,314.326 55.746,313.818 55.958 C 313.581 56.057,313.037 56.191,312.610 56.255 C 312.183 56.319,311.833 56.421,311.833 56.481 C 311.833 56.541,311.329 56.686,310.713 56.803 C 310.097 56.920,309.554 57.078,309.505 57.154 C 309.456 57.230,309.098 57.346,308.708 57.411 C 308.319 57.476,308.000 57.591,308.000 57.666 C 308.000 57.741,307.838 57.760,307.641 57.708 C 307.417 57.650,307.321 57.679,307.387 57.786 C 307.452 57.891,307.169 58.001,306.663 58.068 C 306.207 58.129,305.833 58.255,305.833 58.349 C 305.833 58.443,305.766 58.478,305.684 58.427 C 305.602 58.377,305.321 58.447,305.059 58.583 C 304.797 58.720,304.410 58.832,304.198 58.832 C 303.987 58.833,303.852 58.895,303.899 58.971 C 303.946 59.047,303.500 59.205,302.909 59.322 C 302.317 59.440,301.833 59.587,301.833 59.650 C 301.833 59.713,301.496 59.854,301.083 59.965 C 300.671 60.075,300.332 60.259,300.331 60.374 C 300.329 60.515,300.275 60.501,300.167 60.333 C 300.067 60.179,300.004 60.160,300.003 60.284 C 300.001 60.395,299.719 60.536,299.375 60.598 C 299.031 60.659,298.645 60.794,298.516 60.897 C 298.387 60.999,298.237 61.074,298.183 61.062 C 298.128 61.050,297.910 61.106,297.697 61.187 C 297.485 61.267,297.200 61.333,297.063 61.333 C 296.926 61.333,296.855 61.400,296.905 61.481 C 296.955 61.563,296.791 61.668,296.540 61.715 C 295.414 61.928,295.083 62.033,294.971 62.214 C 294.905 62.320,294.798 62.354,294.733 62.288 C 294.667 62.223,294.520 62.248,294.405 62.343 C 294.290 62.439,293.984 62.555,293.726 62.602 C 293.468 62.649,293.218 62.744,293.170 62.814 C 293.122 62.884,292.727 63.039,292.292 63.159 C 291.856 63.279,291.500 63.432,291.500 63.500 C 291.500 63.568,291.228 63.667,290.896 63.721 C 290.564 63.775,290.170 63.922,290.021 64.049 C 289.872 64.175,289.319 64.378,288.792 64.499 C 288.265 64.621,287.833 64.774,287.833 64.839 C 287.833 64.905,287.608 65.003,287.333 65.058 C 287.058 65.113,286.500 65.310,286.092 65.496 C 285.685 65.681,285.235 65.833,285.092 65.833 C 284.950 65.833,284.833 65.907,284.833 65.997 C 284.833 66.087,284.627 66.210,284.375 66.270 C 284.123 66.330,283.842 66.434,283.750 66.501 C 283.658 66.568,283.171 66.755,282.667 66.917 C 282.162 67.078,281.675 67.263,281.583 67.326 C 281.492 67.390,281.079 67.538,280.667 67.655 C 280.254 67.772,279.822 67.945,279.706 68.039 C 279.553 68.164,279.375 68.081,279.051 67.730 C 278.806 67.466,278.638 67.244,278.678 67.237 C 278.785 67.218,278.075 66.302,276.850 64.881 C 276.630 64.625,276.264 64.135,276.036 63.792 C 275.809 63.448,275.562 63.167,275.489 63.167 C 275.416 63.167,275.308 63.016,275.249 62.831 C 275.191 62.646,275.073 62.538,274.988 62.591 C 274.903 62.643,274.833 62.606,274.833 62.508 C 274.833 62.199,270.683 57.891,269.166 56.625 C 268.754 56.282,268.167 55.794,267.862 55.542 C 267.557 55.290,267.116 54.916,266.883 54.711 C 266.649 54.507,266.392 54.380,266.312 54.430 C 266.232 54.479,266.167 54.440,266.167 54.343 C 266.167 54.246,266.050 54.167,265.907 54.167 C 265.764 54.167,265.688 54.100,265.738 54.019 C 265.788 53.938,265.586 53.774,265.290 53.654 C 264.993 53.534,264.690 53.338,264.617 53.218 C 264.543 53.098,264.419 53.000,264.340 53.000 C 264.260 53.000,263.797 52.737,263.310 52.417 C 262.823 52.096,262.362 51.833,262.285 51.833 C 262.066 51.833,260.256 50.931,260.194 50.791 C 260.163 50.721,260.070 50.707,259.986 50.759 C 259.902 50.811,259.833 50.777,259.833 50.684 C 259.833 50.591,259.571 50.466,259.250 50.406 C 258.929 50.345,258.667 50.237,258.667 50.165 C 258.667 50.092,258.273 49.940,257.792 49.826 C 257.310 49.712,256.879 49.562,256.833 49.492 C 256.787 49.423,256.525 49.327,256.250 49.279 C 255.126 49.083,254.579 48.941,254.500 48.824 C 254.454 48.755,254.004 48.648,253.500 48.584 C 252.996 48.521,252.505 48.404,252.409 48.325 C 252.313 48.247,252.088 48.178,251.909 48.172 C 251.730 48.167,251.321 48.125,251.000 48.080 C 250.679 48.035,249.854 47.952,249.167 47.897 C 248.479 47.842,247.845 47.730,247.758 47.649 C 247.514 47.420,247.127 47.467,247.272 47.708 C 247.369 47.869,247.342 47.873,247.157 47.725 C 246.879 47.504,239.580 47.453,239.167 47.669 C 239.029 47.741,238.057 47.853,237.006 47.918 C 235.955 47.983,234.942 48.090,234.756 48.157 C 234.569 48.225,234.192 48.263,233.917 48.243 C 233.642 48.223,233.342 48.262,233.250 48.331 C 233.117 48.430,231.448 48.651,230.382 48.711 C 230.272 48.717,230.214 48.775,230.253 48.839 C 230.293 48.903,229.858 48.999,229.288 49.053 C 227.204 49.251,226.248 49.386,226.167 49.494 C 226.121 49.555,225.383 49.696,224.527 49.807 C 222.645 50.052,222.605 50.060,222.500 50.175 C 222.400 50.285,220.464 50.657,219.723 50.709 C 219.433 50.729,219.225 50.793,219.261 50.852 C 219.297 50.910,218.805 51.009,218.167 51.072 C 217.529 51.135,216.967 51.252,216.918 51.332 C 216.868 51.412,216.642 51.443,216.414 51.402 C 216.186 51.361,216.000 51.389,216.000 51.465 C 216.000 51.541,215.325 51.698,214.500 51.815 C 213.675 51.932,213.000 52.086,213.000 52.157 C 213.000 52.229,212.644 52.334,212.208 52.391 C 211.151 52.531,210.947 52.574,210.748 52.698 C 210.655 52.756,209.961 52.899,209.206 53.014 C 208.451 53.130,207.833 53.280,207.833 53.349 C 207.833 53.417,207.348 53.525,206.754 53.589 L 205.674 53.705 203.516 51.535 C 202.329 50.341,201.314 49.408,201.262 49.460 C 201.210 49.513,201.167 49.480,201.167 49.387 C 201.167 49.203,199.410 47.379,198.901 47.035 C 198.726 46.917,198.696 46.872,198.833 46.935 C 198.971 46.998,198.826 46.813,198.512 46.525 C 198.197 46.236,197.878 46.000,197.803 46.000 C 197.728 46.000,197.667 45.887,197.667 45.750 C 197.667 45.612,197.593 45.500,197.503 45.500 C 197.414 45.500,197.029 45.162,196.649 44.750 C 196.269 44.337,195.850 44.000,195.719 44.000 C 195.588 44.000,195.527 43.925,195.583 43.833 C 195.640 43.742,195.618 43.667,195.535 43.667 C 195.453 43.667,194.630 42.917,193.707 42.000 C 192.785 41.083,191.944 40.333,191.839 40.333 C 191.733 40.333,191.687 40.268,191.736 40.189 C 191.785 40.109,191.523 39.791,191.154 39.480 C 190.784 39.170,189.891 38.335,189.169 37.625 C 188.447 36.915,187.776 36.333,187.678 36.333 C 187.580 36.333,187.500 36.221,187.500 36.083 C 187.500 35.946,187.433 35.833,187.351 35.833 C 187.269 35.833,186.503 35.158,185.648 34.333 C 184.794 33.508,184.037 32.833,183.967 32.833 C 183.897 32.833,183.357 32.365,182.767 31.792 C 181.580 30.640,181.444 30.522,180.789 30.093 C 180.540 29.930,180.361 29.749,180.392 29.690 C 180.471 29.538,179.881 29.008,179.764 29.125 C 179.710 29.178,179.667 29.135,179.667 29.028 C 179.667 28.921,179.554 28.833,179.417 28.833 C 179.279 28.833,179.167 28.721,179.167 28.583 C 179.167 28.446,179.110 28.332,179.042 28.329 C 178.973 28.327,178.617 28.065,178.250 27.747 C 176.814 26.500,175.955 25.734,175.592 25.375 C 175.383 25.169,175.162 25.000,175.100 25.000 C 175.039 25.000,174.769 24.775,174.500 24.500 C 174.231 24.225,173.961 24.000,173.900 24.000 C 173.838 24.000,173.615 23.831,173.403 23.625 C 173.191 23.419,172.783 23.063,172.497 22.833 C 172.211 22.604,171.670 22.135,171.295 21.792 C 170.920 21.448,170.551 21.167,170.473 21.167 C 170.396 21.167,170.199 21.033,170.036 20.869 C 169.872 20.705,169.459 20.399,169.118 20.188 C 168.777 19.977,168.535 19.745,168.580 19.672 C 168.625 19.599,168.439 19.446,168.167 19.333 C 167.894 19.220,167.705 19.073,167.747 19.005 C 167.789 18.937,167.619 18.789,167.370 18.676 C 167.121 18.562,166.804 18.362,166.667 18.231 C 165.970 17.567,165.198 16.959,164.750 16.722 C 164.475 16.577,164.122 16.336,163.966 16.187 C 163.443 15.688,163.167 15.486,163.167 15.602 C 163.167 15.666,163.027 15.556,162.855 15.359 C 162.684 15.161,162.459 15.000,162.355 15.000 C 162.252 15.000,162.167 14.925,162.167 14.833 C 162.167 14.742,162.062 14.667,161.934 14.667 C 161.807 14.667,161.657 14.549,161.602 14.406 C 161.547 14.263,161.431 14.190,161.343 14.244 C 161.255 14.298,161.101 14.188,161.000 14.000 C 160.899 13.812,160.745 13.701,160.658 13.755 C 160.571 13.809,160.500 13.774,160.500 13.677 C 160.500 13.579,160.385 13.500,160.245 13.500 C 160.104 13.500,159.946 13.387,159.894 13.250 C 159.841 13.113,159.691 13.000,159.560 13.000 C 159.430 13.000,159.280 12.888,159.227 12.750 C 159.174 12.612,158.989 12.500,158.816 12.500 C 158.642 12.500,158.500 12.425,158.500 12.333 C 158.500 12.242,158.387 12.167,158.250 12.167 C 158.112 12.167,158.000 12.090,158.000 11.996 C 158.000 11.902,157.813 11.754,157.583 11.667 C 157.354 11.580,157.167 11.431,157.167 11.337 C 157.167 11.244,157.063 11.167,156.937 11.167 C 156.811 11.167,156.613 11.052,156.497 10.913 C 156.381 10.773,156.250 10.694,156.206 10.738 C 156.163 10.782,156.026 10.727,155.903 10.617 C 155.364 10.136,155.197 10.025,155.125 10.097 C 155.082 10.140,154.953 10.060,154.837 9.921 C 154.721 9.781,154.523 9.667,154.396 9.667 C 154.270 9.667,154.167 9.601,154.167 9.520 C 154.167 9.440,153.942 9.281,153.667 9.167 C 153.392 9.053,153.167 8.909,153.167 8.847 C 153.167 8.784,152.904 8.639,152.583 8.523 C 152.262 8.407,152.000 8.242,152.000 8.156 C 152.000 8.070,151.944 8.011,151.875 8.024 C 151.639 8.069,150.667 7.634,150.667 7.484 C 150.667 7.401,150.560 7.333,150.429 7.333 C 150.298 7.333,150.081 7.224,149.946 7.089 C 149.812 6.955,149.610 6.824,149.497 6.798 C 149.384 6.771,148.683 6.428,147.938 6.035 C 147.193 5.641,146.415 5.277,146.208 5.225 C 146.002 5.173,145.833 5.067,145.833 4.989 C 145.833 4.911,145.533 4.757,145.167 4.647 C 144.800 4.537,144.500 4.384,144.500 4.307 C 144.500 4.230,144.383 4.167,144.241 4.167 C 144.098 4.167,143.667 4.026,143.283 3.854 C 141.458 3.038,140.944 2.838,140.410 2.738 C 140.093 2.678,139.833 2.573,139.833 2.504 C 139.833 2.435,139.365 2.281,138.792 2.161 C 138.219 2.042,137.710 1.885,137.662 1.813 C 137.613 1.741,137.013 1.591,136.328 1.480 C 135.644 1.369,135.044 1.219,134.996 1.148 C 134.947 1.076,134.422 0.967,133.829 0.905 C 133.236 0.844,132.681 0.752,132.596 0.702 C 132.511 0.652,132.249 0.589,132.013 0.563 C 131.777 0.536,131.321 0.471,131.000 0.418 C 130.012 0.255,124.988 0.212,123.667 0.355 M81.826 4.058 C 81.776 4.110,81.214 4.183,80.576 4.219 C 79.938 4.255,79.304 4.327,79.167 4.378 C 79.029 4.430,77.979 4.560,76.833 4.667 C 75.688 4.774,74.675 4.922,74.583 4.996 C 74.492 5.069,74.004 5.184,73.500 5.251 C 72.996 5.318,72.433 5.408,72.250 5.452 C 72.067 5.496,71.748 5.526,71.542 5.518 C 71.335 5.510,71.167 5.570,71.167 5.650 C 71.167 5.783,69.326 6.168,68.625 6.182 C 68.465 6.185,68.333 6.248,68.333 6.322 C 68.333 6.397,68.015 6.516,67.625 6.587 C 66.856 6.728,66.873 6.724,66.483 6.898 C 66.336 6.963,66.149 7.001,66.067 6.981 C 65.984 6.962,65.706 7.033,65.447 7.140 C 65.189 7.246,64.838 7.333,64.666 7.333 C 64.494 7.333,64.306 7.410,64.248 7.503 C 64.191 7.596,64.071 7.627,63.981 7.572 C 63.892 7.516,63.726 7.548,63.613 7.642 C 63.422 7.800,62.705 8.004,62.208 8.040 C 62.094 8.049,62.000 8.109,62.000 8.174 C 62.000 8.285,61.431 8.453,60.503 8.616 C 60.276 8.656,60.051 8.749,60.003 8.823 C 59.956 8.897,59.654 9.012,59.333 9.079 C 59.012 9.145,58.599 9.295,58.414 9.411 C 58.230 9.528,57.817 9.679,57.498 9.747 C 57.178 9.815,56.804 9.960,56.667 10.069 C 56.529 10.178,56.042 10.361,55.583 10.476 C 55.125 10.591,54.725 10.756,54.694 10.843 C 54.664 10.929,54.495 11.000,54.319 11.000 C 54.144 11.000,54.000 11.073,54.000 11.161 C 54.000 11.250,53.887 11.280,53.750 11.227 C 53.612 11.174,53.500 11.213,53.500 11.313 C 53.500 11.413,53.163 11.580,52.750 11.684 C 52.337 11.788,52.000 11.939,52.000 12.020 C 52.000 12.101,51.854 12.167,51.675 12.167 C 51.351 12.167,50.493 12.490,50.333 12.671 C 50.288 12.724,49.940 12.857,49.561 12.967 C 49.183 13.078,48.780 13.280,48.666 13.417 C 48.552 13.555,48.331 13.667,48.174 13.667 C 48.017 13.667,47.833 13.723,47.764 13.792 C 47.695 13.860,47.589 13.920,47.528 13.924 C 47.467 13.928,46.892 14.189,46.250 14.503 C 45.608 14.818,45.059 15.039,45.030 14.996 C 45.001 14.952,44.908 15.039,44.824 15.189 C 44.740 15.339,44.408 15.511,44.086 15.572 C 43.764 15.632,43.500 15.737,43.500 15.804 C 43.500 15.919,42.765 16.253,42.435 16.289 C 42.354 16.298,42.229 16.400,42.157 16.516 C 42.085 16.632,41.897 16.746,41.738 16.769 C 41.580 16.792,41.405 16.883,41.350 16.970 C 41.295 17.058,40.931 17.225,40.542 17.341 C 40.152 17.458,39.833 17.620,39.833 17.703 C 39.833 17.785,39.758 17.807,39.667 17.750 C 39.575 17.693,39.500 17.709,39.500 17.784 C 39.500 17.860,39.106 18.105,38.625 18.330 C 38.144 18.554,37.695 18.826,37.627 18.934 C 37.560 19.041,37.297 19.180,37.044 19.242 C 36.791 19.303,36.304 19.537,35.962 19.760 C 35.620 19.984,35.264 20.167,35.170 20.167 C 35.077 20.167,35.000 20.236,35.000 20.320 C 35.000 20.404,34.790 20.520,34.534 20.576 C 34.277 20.632,33.882 20.850,33.655 21.060 C 33.429 21.270,33.151 21.412,33.038 21.374 C 32.926 21.336,32.833 21.379,32.833 21.470 C 32.833 21.560,32.608 21.712,32.333 21.808 C 32.058 21.904,31.833 22.053,31.833 22.139 C 31.833 22.288,31.217 22.555,30.958 22.518 C 30.890 22.508,30.833 22.563,30.833 22.640 C 30.833 22.766,30.074 23.209,29.808 23.238 C 29.747 23.245,29.482 23.443,29.218 23.678 C 28.953 23.914,28.657 24.080,28.560 24.048 C 28.463 24.015,28.288 24.104,28.171 24.244 C 28.055 24.385,27.856 24.500,27.730 24.500 C 27.603 24.500,27.500 24.575,27.500 24.667 C 27.500 24.758,27.397 24.833,27.270 24.833 C 27.144 24.833,26.944 24.950,26.826 25.092 C 26.709 25.234,26.306 25.497,25.931 25.678 C 25.151 26.054,24.691 26.332,24.381 26.614 C 24.262 26.723,24.015 26.859,23.832 26.917 C 23.650 26.975,23.500 27.097,23.500 27.188 C 23.500 27.279,23.425 27.307,23.333 27.250 C 23.242 27.193,23.167 27.226,23.167 27.323 C 23.167 27.421,23.068 27.500,22.948 27.500 C 22.828 27.500,22.569 27.650,22.372 27.833 C 22.175 28.017,21.936 28.167,21.840 28.167 C 21.745 28.167,21.667 28.238,21.667 28.326 C 21.667 28.413,21.385 28.616,21.042 28.778 C 20.698 28.939,20.322 29.162,20.207 29.274 C 20.092 29.386,19.848 29.526,19.666 29.584 C 19.483 29.642,19.333 29.759,19.333 29.845 C 19.333 29.930,19.247 30.000,19.141 30.000 C 19.035 30.000,18.679 30.206,18.349 30.458 C 18.020 30.710,17.694 30.897,17.625 30.874 C 17.556 30.852,17.500 30.910,17.500 31.004 C 17.500 31.098,17.312 31.246,17.083 31.333 C 16.854 31.420,16.667 31.569,16.667 31.663 C 16.667 31.756,16.586 31.833,16.488 31.833 C 16.390 31.833,16.196 31.947,16.058 32.085 C 15.920 32.223,15.745 32.299,15.671 32.252 C 15.596 32.206,15.492 32.281,15.439 32.418 C 15.387 32.555,15.237 32.667,15.106 32.667 C 14.976 32.667,14.826 32.779,14.773 32.917 C 14.720 33.054,14.579 33.167,14.459 33.167 C 14.339 33.167,13.718 33.541,13.079 33.998 C 12.440 34.456,11.774 34.924,11.599 35.040 C 11.424 35.155,11.164 35.381,11.020 35.542 C 10.877 35.702,10.663 35.833,10.546 35.833 C 10.429 35.833,10.333 35.894,10.333 35.969 C 10.333 36.044,10.071 36.230,9.750 36.383 C 9.429 36.536,9.167 36.737,9.167 36.831 C 9.167 36.924,9.060 37.000,8.929 37.000 C 8.798 37.000,8.418 37.257,8.084 37.572 C 7.751 37.886,7.427 38.148,7.364 38.154 C 7.301 38.159,7.137 38.258,7.000 38.374 C 6.862 38.489,6.525 38.724,6.250 38.897 C 5.975 39.069,5.544 39.402,5.292 39.636 C 5.040 39.871,4.833 40.011,4.833 39.948 C 4.833 39.831,4.462 40.125,3.768 40.792 C 3.554 40.998,3.311 41.167,3.229 41.167 C 3.147 41.167,2.858 41.373,2.588 41.625 C 2.317 41.877,1.734 42.312,1.292 42.592 C 0.851 42.872,0.542 43.153,0.606 43.217 C 0.670 43.281,0.598 43.333,0.446 43.333 C 0.191 43.333,0.170 45.468,0.168 72.511 L 0.165 101.689 0.791 100.952 C 3.388 97.894,4.486 96.619,7.488 93.167 C 12.442 87.469,20.885 78.052,23.999 74.750 C 24.604 74.108,25.696 72.947,26.425 72.169 C 27.894 70.602,29.405 68.999,32.004 66.250 C 34.821 63.272,49.032 49.115,51.833 46.497 C 53.254 45.170,55.016 43.515,55.750 42.821 C 56.483 42.127,57.833 40.893,58.750 40.079 C 59.667 39.266,60.454 38.559,60.500 38.508 C 61.015 37.940,68.711 31.288,70.917 29.505 C 71.650 28.912,72.287 28.380,72.333 28.322 C 72.396 28.242,76.951 24.635,79.334 22.779 C 86.347 17.314,96.348 10.797,102.541 7.656 C 103.343 7.249,103.999 6.842,103.999 6.750 C 104.000 6.558,102.493 6.063,101.204 5.832 C 100.720 5.745,100.195 5.605,100.037 5.520 C 99.879 5.436,99.300 5.313,98.750 5.246 C 98.200 5.180,97.675 5.070,97.583 5.002 C 97.416 4.878,96.353 4.731,94.333 4.550 C 93.737 4.497,93.210 4.393,93.162 4.318 C 93.113 4.243,92.925 4.179,92.745 4.175 C 85.971 4.027,81.897 3.983,81.826 4.058 " stroke="none" fill="#f1f1f1" fill-rule="evenodd"></path><path id="path2" d="M165.833 64.525 C 164.229 64.986,162.429 65.506,161.833 65.682 C 161.237 65.858,158.950 66.518,156.750 67.150 C 152.647 68.327,149.170 69.337,145.500 70.418 C 144.354 70.755,142.798 71.212,142.042 71.432 C 138.596 72.437,137.693 72.705,134.250 73.741 C 132.233 74.348,129.946 75.037,129.167 75.271 C 128.387 75.504,126.813 75.985,125.667 76.339 C 124.521 76.693,121.333 77.663,118.583 78.496 C 115.833 79.329,113.208 80.128,112.750 80.272 C 112.292 80.416,109.629 81.244,106.833 82.112 C 99.653 84.340,94.385 85.984,91.000 87.052 C 86.543 88.458,78.145 91.125,77.583 91.313 C 77.127 91.465,72.211 93.036,67.000 94.693 C 65.854 95.058,64.504 95.497,64.000 95.669 C 63.496 95.841,60.833 96.706,58.083 97.591 C 55.333 98.477,51.546 99.705,49.667 100.321 C 47.788 100.938,44.304 102.074,41.924 102.846 C 39.545 103.618,29.270 107.025,19.091 110.417 L 0.583 116.583 0.460 120.333 C 0.392 122.396,0.355 133.046,0.377 144.000 L 0.418 163.917 0.459 142.875 L 0.500 121.833 3.625 121.823 C 5.344 121.818,8.362 121.788,10.333 121.756 C 15.139 121.680,26.896 121.517,35.083 121.414 C 42.488 121.320,48.637 121.208,53.417 121.080 C 55.158 121.033,61.008 120.922,66.417 120.834 C 75.684 120.682,79.259 120.595,83.583 120.416 C 84.592 120.375,87.442 120.298,89.917 120.246 C 95.452 120.129,104.476 119.864,106.833 119.749 C 107.796 119.702,111.058 119.589,114.083 119.497 C 117.108 119.406,120.108 119.296,120.750 119.254 C 121.392 119.212,122.929 119.133,124.167 119.080 C 127.159 118.951,132.125 118.665,132.750 118.585 C 133.025 118.550,134.037 118.437,135.000 118.334 C 137.906 118.023,143.366 117.135,147.167 116.355 C 148.037 116.176,149.320 115.914,150.017 115.773 C 150.714 115.631,151.727 115.401,152.267 115.262 C 152.808 115.124,154.487 114.702,156.000 114.325 C 161.316 113.002,163.661 112.360,169.083 110.741 C 169.908 110.494,171.033 110.158,171.583 109.994 C 174.650 109.079,183.795 106.119,184.417 105.841 C 184.600 105.759,185.912 105.301,187.333 104.823 C 188.754 104.345,191.551 103.364,193.549 102.644 C 197.875 101.083,197.245 101.119,198.247 102.376 C 198.704 102.948,199.117 103.454,199.164 103.500 C 199.211 103.546,199.547 103.958,199.910 104.417 C 200.642 105.340,201.905 106.816,203.905 109.083 C 205.471 110.859,211.321 116.772,211.985 117.250 C 212.239 117.433,212.843 117.921,213.325 118.333 C 213.807 118.746,214.448 119.290,214.748 119.542 C 218.927 123.051,225.362 125.768,229.417 125.737 C 232.959 125.710,238.657 123.345,247.583 118.198 C 250.698 116.402,257.362 112.316,260.000 110.586 C 262.226 109.125,264.038 107.975,264.229 107.902 C 264.337 107.860,265.174 108.361,266.088 109.014 C 267.572 110.075,270.029 111.720,272.417 113.250 C 273.543 113.972,276.665 115.833,276.750 115.833 C 276.788 115.833,277.216 116.068,277.701 116.355 C 278.929 117.080,283.162 119.189,284.667 119.825 C 285.354 120.115,286.067 120.420,286.250 120.502 C 288.704 121.602,292.358 122.732,296.515 123.677 C 303.616 125.290,316.180 124.406,327.167 121.520 C 331.400 120.408,339.801 117.641,341.917 116.662 C 342.100 116.578,342.887 116.253,343.667 115.941 C 347.009 114.605,351.111 112.705,356.859 109.833 C 359.741 108.393,361.452 107.636,362.109 107.509 C 362.645 107.405,363.571 107.213,364.167 107.082 C 364.762 106.951,366.150 106.653,367.250 106.421 C 368.350 106.188,369.512 105.926,369.833 105.839 C 370.154 105.751,371.692 105.368,373.250 104.987 C 375.685 104.393,378.508 103.636,383.167 102.328 C 383.762 102.160,385.150 101.750,386.250 101.415 C 387.350 101.081,388.512 100.733,388.833 100.642 C 389.421 100.475,390.751 100.046,396.620 98.129 L 399.823 97.083 399.828 95.884 L 399.833 94.685 395.823 91.509 C 391.179 87.831,391.829 88.086,390.170 89.292 C 385.835 92.443,377.500 98.042,373.980 100.167 C 373.448 100.487,372.467 101.087,371.798 101.498 C 370.379 102.373,370.841 102.100,366.773 104.462 C 361.607 107.461,360.928 107.765,358.500 108.167 C 329.733 112.931,312.639 108.948,298.410 94.167 C 296.362 92.039,295.242 90.789,294.266 89.542 C 293.199 88.178,294.301 87.687,286.333 93.079 C 271.116 103.377,264.648 107.667,264.338 107.667 C 263.662 107.667,251.274 97.674,245.833 92.740 C 245.512 92.449,244.387 91.437,243.333 90.490 C 242.279 89.544,241.379 88.726,241.333 88.673 C 241.287 88.619,240.485 87.886,239.550 87.042 L 237.850 85.509 237.217 85.738 C 236.868 85.864,235.833 86.280,234.917 86.663 C 234.000 87.045,232.950 87.466,232.583 87.597 C 232.217 87.728,231.767 87.908,231.583 87.997 C 231.400 88.086,230.612 88.414,229.833 88.726 C 228.409 89.295,227.861 89.522,226.891 89.940 C 226.603 90.065,226.314 90.167,226.250 90.167 C 226.186 90.167,225.897 90.274,225.609 90.404 C 224.998 90.681,221.072 92.248,217.833 93.508 C 216.596 93.989,214.833 94.676,213.917 95.034 C 213.000 95.392,211.575 95.939,210.750 96.248 C 209.925 96.558,208.350 97.160,207.250 97.585 C 206.150 98.010,204.987 98.454,204.667 98.572 C 202.007 99.547,198.974 100.687,198.464 100.904 C 197.235 101.425,197.475 101.679,191.122 93.167 C 190.199 91.929,189.130 90.504,188.748 90.000 C 188.366 89.496,186.340 86.721,184.246 83.833 C 182.152 80.946,179.383 77.137,178.094 75.369 C 176.805 73.601,175.587 71.914,175.387 71.619 C 173.259 68.480,169.530 63.746,169.164 63.719 C 168.936 63.702,167.438 64.065,165.833 64.525 " stroke="none" fill="#d4d4d4" fill-rule="evenodd"></path><path id="path3" d="M396.833 98.032 C 394.434 98.860,391.898 99.689,389.500 100.429 C 387.173 101.147,384.255 102.022,383.167 102.328 C 378.508 103.636,375.685 104.393,373.250 104.987 C 371.692 105.368,370.154 105.751,369.833 105.839 C 369.512 105.926,368.350 106.188,367.250 106.421 C 366.150 106.653,364.762 106.951,364.167 107.082 C 363.571 107.213,362.645 107.405,362.109 107.509 C 361.452 107.636,359.741 108.393,356.859 109.833 C 351.111 112.705,347.009 114.605,343.667 115.941 C 342.887 116.253,342.100 116.578,341.917 116.662 C 339.801 117.641,331.400 120.408,327.167 121.520 C 316.180 124.406,303.616 125.290,296.515 123.677 C 292.358 122.732,288.704 121.602,286.250 120.502 C 286.067 120.420,285.354 120.115,284.667 119.825 C 283.162 119.189,278.929 117.080,277.701 116.355 C 277.216 116.068,276.788 115.833,276.750 115.833 C 276.665 115.833,273.543 113.972,272.417 113.250 C 270.029 111.720,267.572 110.075,266.088 109.014 C 265.174 108.361,264.337 107.860,264.229 107.902 C 264.038 107.975,262.226 109.125,260.000 110.586 C 248.364 118.221,238.073 123.695,232.083 125.434 C 227.869 126.657,220.063 124.004,214.748 119.542 C 214.448 119.290,213.807 118.746,213.325 118.333 C 212.843 117.921,212.239 117.433,211.985 117.250 C 211.321 116.772,205.471 110.859,203.905 109.083 C 201.905 106.816,200.642 105.340,199.910 104.417 C 199.547 103.958,199.211 103.546,199.164 103.500 C 199.117 103.454,198.704 102.948,198.247 102.376 C 197.245 101.119,197.875 101.083,193.549 102.644 C 191.551 103.364,188.754 104.345,187.333 104.823 C 185.912 105.301,184.600 105.759,184.417 105.841 C 183.795 106.119,174.650 109.079,171.583 109.994 C 171.033 110.158,169.908 110.494,169.083 110.741 C 163.661 112.360,161.316 113.002,156.000 114.325 C 154.487 114.702,152.808 115.124,152.267 115.262 C 151.727 115.401,150.714 115.631,150.017 115.773 C 149.320 115.914,148.037 116.176,147.167 116.355 C 143.366 117.135,137.906 118.023,135.000 118.334 C 134.037 118.437,133.025 118.550,132.750 118.585 C 132.125 118.665,127.159 118.951,124.167 119.080 C 122.929 119.133,121.392 119.212,120.750 119.254 C 120.108 119.296,117.108 119.406,114.083 119.497 C 111.058 119.589,107.796 119.702,106.833 119.749 C 104.476 119.864,95.452 120.129,89.917 120.246 C 87.442 120.298,84.592 120.375,83.583 120.416 C 79.259 120.595,75.684 120.682,66.417 120.834 C 61.008 120.922,55.158 121.033,53.417 121.080 C 48.637 121.208,42.488 121.320,35.083 121.414 C 26.896 121.517,15.139 121.680,10.333 121.756 C 8.362 121.788,5.344 121.818,3.625 121.823 L 0.500 121.833 0.500 142.833 L 0.500 163.834 200.167 163.833 L 399.833 163.833 399.833 130.500 C 399.833 98.859,399.819 97.167,399.542 97.183 C 399.381 97.191,398.162 97.574,396.833 98.032 " stroke="none" fill="#c4c4c4" fill-rule="evenodd"></path><path id="path4" d="M168.833 63.500 C 168.833 63.591,168.985 63.667,169.169 63.667 C 169.413 63.667,170.176 64.574,171.940 66.958 C 173.279 68.769,174.609 70.564,174.895 70.948 C 175.182 71.332,175.744 72.101,176.144 72.656 C 176.544 73.212,176.900 73.667,176.936 73.667 C 177.090 73.667,176.977 73.371,176.708 73.073 C 176.548 72.895,176.304 72.530,176.167 72.260 C 176.029 71.991,175.767 71.615,175.583 71.426 C 175.225 71.054,175.081 70.868,173.398 68.583 C 172.790 67.758,172.252 66.980,172.204 66.854 C 172.155 66.729,171.921 66.424,171.683 66.178 C 171.235 65.714,170.939 65.323,170.294 64.345 C 169.927 63.789,168.833 63.156,168.833 63.500 M167.417 63.851 C 167.050 63.934,166.600 64.075,166.417 64.164 C 166.061 64.338,164.748 64.677,164.333 64.702 C 164.196 64.710,164.046 64.767,164.000 64.828 C 163.920 64.936,162.429 65.350,160.792 65.720 C 160.356 65.819,160.000 65.961,160.000 66.036 C 160.000 66.189,160.442 66.102,161.917 65.660 C 162.467 65.495,164.192 65.006,165.750 64.572 C 167.308 64.139,168.615 63.758,168.653 63.726 C 168.770 63.626,168.119 63.692,167.417 63.851 M158.667 66.366 C 158.254 66.456,157.842 66.603,157.750 66.693 C 157.570 66.870,158.079 66.773,159.250 66.408 C 160.044 66.160,159.719 66.137,158.667 66.366 M156.000 67.049 C 155.587 67.145,155.210 67.283,155.162 67.354 C 155.113 67.426,154.569 67.580,153.953 67.697 C 153.337 67.814,152.833 67.963,152.833 68.028 C 152.833 68.093,152.496 68.197,152.083 68.259 C 151.671 68.321,151.333 68.438,151.333 68.519 C 151.333 68.734,151.554 68.704,152.624 68.344 C 153.152 68.166,154.446 67.781,155.500 67.488 C 157.848 66.836,158.188 66.537,156.000 67.049 M150.833 68.651 C 150.696 68.728,150.227 68.843,149.792 68.906 C 149.163 68.997,148.629 69.333,149.114 69.333 C 149.475 69.333,151.167 68.766,151.167 68.645 C 151.167 68.471,151.152 68.471,150.833 68.651 M147.625 69.538 C 147.190 69.628,146.833 69.771,146.833 69.855 C 146.833 70.018,147.395 69.911,148.333 69.569 C 149.020 69.319,148.734 69.307,147.625 69.538 M145.305 70.226 C 144.546 70.463,144.236 70.738,144.917 70.571 C 146.101 70.281,146.755 70.033,146.333 70.034 C 146.104 70.035,145.642 70.121,145.305 70.226 M143.000 70.920 C 142.587 71.042,141.837 71.268,141.333 71.422 C 140.829 71.575,139.967 71.817,139.417 71.958 C 138.867 72.100,138.304 72.254,138.167 72.301 C 138.029 72.348,137.823 72.371,137.708 72.352 C 137.594 72.334,137.500 72.390,137.500 72.478 C 137.500 72.566,137.200 72.688,136.834 72.750 C 136.468 72.812,136.126 72.931,136.074 73.015 C 135.938 73.235,136.159 73.205,137.264 72.851 C 137.806 72.678,139.337 72.222,140.667 71.838 C 141.996 71.454,143.383 71.039,143.750 70.917 C 144.617 70.626,143.978 70.629,143.000 70.920 M134.667 73.420 C 134.254 73.543,133.467 73.764,132.917 73.911 C 132.367 74.058,131.767 74.250,131.583 74.336 C 131.251 74.494,129.937 74.838,129.542 74.871 C 129.427 74.881,129.333 74.947,129.333 75.018 C 129.333 75.088,128.995 75.197,128.581 75.259 C 128.168 75.321,127.788 75.438,127.738 75.519 C 127.604 75.736,127.760 75.708,129.241 75.258 C 129.979 75.034,131.746 74.500,133.167 74.071 C 134.587 73.643,135.781 73.264,135.819 73.230 C 135.953 73.109,135.411 73.198,134.667 73.420 M177.347 74.348 C 177.582 74.661,178.282 75.610,178.901 76.458 C 180.001 77.965,180.167 78.148,180.167 77.858 C 180.167 77.731,179.939 77.435,179.088 76.458 C 178.948 76.298,178.833 76.096,178.833 76.009 C 178.833 75.922,178.647 75.640,178.419 75.384 C 177.932 74.834,177.811 74.672,177.571 74.251 C 177.473 74.078,177.286 73.901,177.156 73.857 C 177.017 73.811,177.096 74.015,177.347 74.348 M125.917 76.077 C 125.272 76.373,125.736 76.377,126.500 76.083 C 126.879 75.938,126.966 75.857,126.750 75.854 C 126.567 75.851,126.192 75.951,125.917 76.077 M124.125 76.538 C 123.690 76.628,123.333 76.770,123.333 76.851 C 123.333 77.048,123.383 77.043,124.433 76.738 C 125.815 76.336,125.640 76.222,124.125 76.538 M121.958 77.204 C 121.523 77.295,121.167 77.438,121.167 77.521 C 121.167 77.684,121.729 77.577,122.667 77.236 C 123.353 76.986,123.067 76.973,121.958 77.204 M119.667 77.869 C 119.254 77.960,118.879 78.093,118.833 78.165 C 118.787 78.236,118.300 78.386,117.750 78.499 C 117.200 78.611,116.672 78.766,116.577 78.843 C 116.481 78.920,116.106 79.056,115.743 79.147 C 115.380 79.237,114.783 79.425,114.417 79.565 C 114.050 79.704,113.544 79.822,113.292 79.826 C 113.040 79.830,112.833 79.908,112.833 80.000 C 112.833 80.230,120.629 78.060,120.986 77.731 C 121.101 77.625,120.465 77.692,119.667 77.869 M180.288 78.375 C 180.377 78.490,181.932 80.631,183.745 83.133 C 185.557 85.635,187.076 87.646,187.121 87.601 C 187.203 87.519,186.325 86.196,185.792 85.598 C 185.631 85.418,185.500 85.213,185.500 85.142 C 185.500 85.071,185.306 84.804,185.069 84.548 C 184.699 84.149,183.702 82.791,182.833 81.506 C 182.696 81.302,182.415 80.936,182.209 80.693 C 182.002 80.449,181.834 80.156,181.834 80.042 C 181.833 79.927,181.756 79.833,181.663 79.833 C 181.569 79.833,181.420 79.646,181.333 79.417 C 181.246 79.188,181.110 79.000,181.031 79.000 C 180.952 79.000,180.801 78.813,180.697 78.583 C 180.593 78.354,180.421 78.167,180.316 78.167 C 180.189 78.167,180.179 78.235,180.288 78.375 M111.542 80.377 C 111.152 80.471,110.833 80.613,110.833 80.694 C 110.833 80.860,111.511 80.723,112.250 80.407 C 112.844 80.154,112.527 80.140,111.542 80.377 M109.375 81.044 C 108.985 81.137,108.667 81.280,108.667 81.360 C 108.667 81.518,109.238 81.407,110.167 81.069 C 110.861 80.816,110.385 80.801,109.375 81.044 M107.583 81.667 C 107.400 81.745,107.044 81.815,106.792 81.822 C 106.540 81.828,106.333 81.908,106.333 82.000 C 106.333 82.092,106.229 82.167,106.102 82.167 C 105.975 82.167,104.981 82.457,103.894 82.812 C 102.806 83.167,101.654 83.513,101.333 83.581 C 101.013 83.649,100.675 83.762,100.583 83.831 C 100.492 83.900,100.023 84.049,99.541 84.162 C 99.060 84.274,98.619 84.442,98.562 84.535 C 98.441 84.731,98.331 84.760,102.083 83.581 C 107.938 81.742,108.575 81.529,108.250 81.526 C 108.067 81.525,107.767 81.588,107.583 81.667 M96.417 85.106 C 94.598 85.682,94.561 85.697,94.750 85.766 C 94.842 85.799,95.704 85.570,96.667 85.257 C 97.629 84.944,98.267 84.687,98.083 84.686 C 97.900 84.684,97.150 84.873,96.417 85.106 M237.184 85.514 C 236.965 85.602,236.818 85.707,236.858 85.747 C 236.978 85.867,237.667 85.640,237.667 85.481 C 237.667 85.400,237.648 85.338,237.625 85.344 C 237.602 85.350,237.404 85.426,237.184 85.514 M239.462 86.980 C 241.233 88.597,241.846 88.913,240.223 87.372 C 238.619 85.849,238.208 85.500,238.019 85.500 C 237.921 85.500,238.571 86.166,239.462 86.980 M94.089 85.824 C 94.036 85.910,93.656 86.031,93.246 86.093 C 92.836 86.154,92.500 86.261,92.500 86.329 C 92.500 86.398,92.050 86.550,91.500 86.667 C 90.696 86.837,90.111 87.167,90.612 87.167 C 90.948 87.167,94.500 85.924,94.500 85.806 C 94.500 85.617,94.210 85.629,94.089 85.824 M236.333 85.833 C 236.333 85.925,236.263 86.000,236.178 86.000 C 235.893 86.000,235.119 86.341,235.206 86.428 C 235.330 86.552,236.667 85.991,236.667 85.815 C 236.667 85.734,236.592 85.667,236.500 85.667 C 236.408 85.667,236.333 85.742,236.333 85.833 M234.167 86.715 C 233.846 86.815,233.546 86.946,233.500 87.007 C 233.454 87.068,233.117 87.213,232.750 87.329 C 232.009 87.564,231.469 87.953,232.167 87.749 C 232.665 87.604,234.872 86.683,234.980 86.576 C 235.091 86.465,234.827 86.510,234.167 86.715 M89.042 87.390 C 88.652 87.486,88.333 87.625,88.333 87.699 C 88.333 87.895,88.647 87.846,89.583 87.500 C 90.482 87.168,90.189 87.109,89.042 87.390 M87.042 88.044 C 86.652 88.137,86.333 88.286,86.333 88.375 C 86.333 88.463,86.441 88.494,86.573 88.444 C 86.705 88.393,87.117 88.270,87.490 88.169 C 88.698 87.844,88.317 87.737,87.042 88.044 M187.284 88.042 C 187.767 88.677,189.536 91.051,190.150 91.888 C 190.542 92.422,190.904 92.819,190.953 92.769 C 191.002 92.720,190.746 92.321,190.385 91.882 C 190.023 91.443,189.567 90.817,189.371 90.493 C 189.175 90.168,188.880 89.743,188.716 89.548 C 187.979 88.678,187.848 88.506,187.674 88.180 C 187.572 87.989,187.407 87.833,187.307 87.833 C 187.189 87.833,187.181 87.906,187.284 88.042 M231.167 87.951 C 231.029 88.002,230.602 88.183,230.217 88.355 C 229.833 88.526,229.473 88.667,229.417 88.667 C 229.361 88.667,229.000 88.808,228.616 88.981 C 228.231 89.154,227.673 89.348,227.375 89.411 C 227.077 89.475,226.833 89.592,226.833 89.672 C 226.833 89.753,226.571 89.867,226.250 89.928 C 225.929 89.988,225.667 90.109,225.667 90.196 C 225.667 90.363,226.076 90.273,226.917 89.919 C 228.550 89.233,229.530 88.832,230.417 88.488 C 231.595 88.031,232.274 87.545,231.167 87.951 M391.000 88.467 C 390.771 88.622,390.438 88.880,390.260 89.041 C 390.083 89.202,389.839 89.333,389.719 89.333 C 389.598 89.333,389.500 89.410,389.500 89.504 C 389.500 89.598,389.313 89.746,389.083 89.833 C 388.854 89.920,388.667 90.073,388.667 90.172 C 388.667 90.393,388.770 90.332,390.283 89.217 C 391.802 88.098,391.242 87.880,395.491 91.246 C 397.512 92.848,399.167 94.113,399.167 94.057 C 399.167 93.915,398.345 93.167,398.188 93.167 C 398.118 93.167,397.902 92.998,397.708 92.792 C 397.306 92.363,397.233 92.303,396.042 91.415 C 395.560 91.056,395.167 90.703,395.167 90.631 C 395.167 90.559,395.071 90.500,394.954 90.500 C 394.837 90.500,394.621 90.369,394.474 90.208 C 394.327 90.048,393.960 89.729,393.657 89.500 C 393.355 89.271,393.014 88.990,392.899 88.875 C 392.784 88.760,392.619 88.667,392.532 88.667 C 392.445 88.667,392.281 88.554,392.167 88.417 C 391.900 88.096,391.523 88.112,391.000 88.467 M292.833 88.457 C 292.696 88.510,292.208 88.828,291.750 89.163 C 291.292 89.498,290.785 89.822,290.625 89.881 C 290.465 89.941,290.333 90.071,290.333 90.170 C 290.333 90.372,290.295 90.393,291.955 89.292 C 293.434 88.311,293.291 88.296,294.266 89.542 C 296.724 92.683,301.261 97.187,304.583 99.784 C 306.851 101.556,310.500 103.865,310.500 103.527 C 310.500 103.433,310.333 103.303,310.128 103.238 C 309.759 103.121,308.965 102.608,308.534 102.208 C 308.411 102.094,308.235 102.000,308.144 102.000 C 308.052 102.000,307.732 101.813,307.431 101.583 C 307.131 101.354,306.817 101.167,306.733 101.167 C 306.649 101.167,306.487 101.017,306.372 100.833 C 306.258 100.650,306.086 100.500,305.992 100.500 C 305.897 100.500,305.729 100.424,305.618 100.331 C 305.507 100.239,305.117 99.940,304.750 99.668 C 302.273 97.830,297.765 93.448,295.500 90.677 C 295.179 90.284,294.637 89.653,294.296 89.273 C 293.955 88.894,293.674 88.527,293.671 88.458 C 293.666 88.315,293.201 88.314,292.833 88.457 M84.250 88.943 C 83.517 89.175,82.767 89.434,82.583 89.520 C 82.270 89.667,81.738 89.826,79.500 90.441 C 78.690 90.664,78.030 91.000,78.403 91.000 C 78.568 91.000,86.055 88.642,86.153 88.559 C 86.358 88.385,85.420 88.574,84.250 88.943 M241.353 88.607 C 241.388 88.694,242.279 89.541,243.333 90.488 C 244.387 91.436,245.512 92.449,245.833 92.740 C 248.998 95.610,255.296 100.877,259.083 103.823 C 260.183 104.678,261.177 105.452,261.292 105.543 C 261.416 105.641,261.500 105.644,261.500 105.551 C 261.500 105.464,260.975 105.002,260.333 104.523 C 259.692 104.045,259.167 103.581,259.167 103.493 C 259.167 103.405,259.058 103.333,258.925 103.333 C 258.792 103.333,258.474 103.147,258.217 102.919 C 257.960 102.692,257.675 102.448,257.583 102.377 C 257.492 102.307,257.154 102.038,256.833 101.778 C 256.512 101.519,256.044 101.144,255.792 100.945 C 255.540 100.746,255.066 100.340,254.738 100.042 C 254.411 99.744,254.092 99.499,254.030 99.499 C 253.968 99.498,253.654 99.254,253.333 98.957 C 253.012 98.660,252.450 98.169,252.083 97.867 C 250.594 96.640,250.106 96.220,249.431 95.583 C 249.043 95.217,248.519 94.767,248.268 94.583 C 248.017 94.400,247.404 93.875,246.907 93.417 C 246.409 92.958,245.613 92.246,245.138 91.833 C 244.662 91.421,243.878 90.701,243.394 90.234 C 242.418 89.290,241.254 88.362,241.353 88.607 M224.717 90.518 C 224.423 90.603,224.132 90.754,224.071 90.854 C 223.959 91.035,224.237 90.981,225.125 90.649 C 225.886 90.364,225.584 90.267,224.717 90.518 M288.927 91.093 C 288.383 91.499,287.801 91.874,287.635 91.927 C 287.469 91.979,287.333 92.092,287.333 92.178 C 287.333 92.263,287.240 92.333,287.125 92.334 C 287.010 92.334,286.719 92.502,286.477 92.709 C 286.235 92.915,285.731 93.271,285.357 93.500 C 284.982 93.729,284.674 93.977,284.671 94.052 C 284.666 94.217,284.575 94.273,287.417 92.363 C 289.768 90.783,290.373 90.324,290.077 90.344 C 289.989 90.351,289.471 90.687,288.927 91.093 M387.237 91.130 C 386.588 91.563,385.763 92.148,385.404 92.431 C 385.044 92.713,384.619 92.992,384.458 93.050 C 384.298 93.109,384.167 93.243,384.167 93.349 C 384.167 93.478,384.235 93.488,384.375 93.379 C 384.490 93.290,385.465 92.600,386.542 91.846 C 388.214 90.676,388.675 90.313,388.458 90.338 C 388.435 90.341,387.886 90.697,387.237 91.130 M77.113 91.242 C 76.762 91.367,76.425 91.520,76.363 91.582 C 76.213 91.732,77.125 91.508,77.750 91.241 C 78.420 90.954,77.916 90.955,77.113 91.242 M223.333 91.118 C 223.196 91.169,222.783 91.342,222.417 91.503 C 222.050 91.664,221.506 91.848,221.208 91.911 C 220.910 91.975,220.667 92.096,220.667 92.180 C 220.667 92.264,220.559 92.333,220.428 92.333 C 220.296 92.333,219.977 92.420,219.719 92.527 C 219.461 92.633,219.194 92.708,219.125 92.694 C 219.056 92.679,219.000 92.742,219.000 92.833 C 219.000 93.059,222.668 91.741,223.667 91.156 C 223.940 90.996,223.731 90.972,223.333 91.118 M75.000 91.851 C 74.679 91.936,74.295 92.074,74.146 92.158 C 73.996 92.242,73.602 92.362,73.269 92.424 C 72.936 92.487,72.624 92.601,72.576 92.678 C 72.528 92.756,72.379 92.777,72.245 92.725 C 72.110 92.673,72.000 92.714,72.000 92.816 C 72.000 92.917,71.892 93.000,71.761 93.000 C 71.428 93.000,70.604 93.326,70.698 93.420 C 70.741 93.463,72.007 93.093,73.513 92.597 C 75.895 91.814,76.736 91.392,75.000 91.851 M191.121 93.208 C 191.309 93.449,192.936 95.584,194.573 97.737 C 197.422 101.485,197.292 101.380,198.504 100.896 C 199.410 100.533,199.267 100.460,198.201 100.741 L 197.333 100.970 196.875 100.307 C 196.623 99.943,196.173 99.386,195.875 99.069 C 195.577 98.753,195.333 98.445,195.333 98.386 C 195.333 98.327,195.223 98.159,195.088 98.014 C 194.559 97.446,193.833 96.534,193.833 96.438 C 193.833 96.383,193.725 96.205,193.594 96.044 C 193.462 95.882,193.082 95.412,192.750 95.000 C 192.418 94.587,192.044 94.125,191.919 93.972 C 191.795 93.818,191.609 93.537,191.507 93.347 C 191.405 93.156,191.240 93.000,191.140 93.000 C 191.020 93.000,191.014 93.070,191.121 93.208 M218.125 93.115 C 217.965 93.157,217.833 93.257,217.833 93.337 C 217.833 93.417,218.058 93.404,218.333 93.308 C 219.083 93.047,218.930 92.905,218.125 93.115 M69.305 93.726 C 68.969 93.831,68.632 93.979,68.556 94.055 C 68.398 94.213,69.138 94.050,70.000 93.736 C 70.729 93.470,70.150 93.462,69.305 93.726 M217.000 93.620 C 216.862 93.672,216.571 93.781,216.352 93.862 C 216.133 93.943,215.992 94.047,216.038 94.094 C 216.085 94.140,216.489 94.030,216.936 93.848 C 217.637 93.564,217.694 93.359,217.000 93.620 M383.167 93.951 C 382.754 94.197,381.803 94.834,381.053 95.366 C 380.303 95.898,379.609 96.333,379.511 96.333 C 379.414 96.333,379.333 96.399,379.333 96.480 C 379.333 96.560,379.093 96.726,378.799 96.848 C 378.505 96.969,378.139 97.194,377.986 97.347 C 377.833 97.500,377.605 97.662,377.479 97.706 C 377.353 97.751,377.293 97.835,377.347 97.893 C 377.430 97.984,383.470 94.082,383.908 93.655 C 384.176 93.393,383.949 93.484,383.167 93.951 M67.417 94.286 C 67.233 94.330,66.858 94.467,66.583 94.590 C 66.308 94.713,65.783 94.893,65.417 94.990 C 64.805 95.152,64.099 95.491,64.361 95.497 C 64.535 95.501,68.226 94.330,68.312 94.244 C 68.405 94.150,67.875 94.175,67.417 94.286 M215.250 94.286 C 215.067 94.330,214.692 94.466,214.417 94.588 C 213.396 95.041,210.005 96.333,209.839 96.333 C 209.744 96.333,209.667 96.403,209.667 96.488 C 209.667 96.641,210.565 96.335,213.978 95.017 C 215.947 94.257,216.365 94.017,215.250 94.286 M283.266 94.922 C 282.725 95.326,282.200 95.686,282.099 95.722 C 281.999 95.758,281.957 95.832,282.006 95.886 C 282.085 95.973,284.011 94.722,284.408 94.325 C 284.823 93.910,284.155 94.260,283.266 94.922 M63.167 95.695 C 62.416 95.907,62.052 96.237,62.750 96.072 C 63.423 95.914,64.312 95.527,64.000 95.529 C 63.862 95.529,63.487 95.604,63.167 95.695 M281.262 96.254 C 281.086 96.387,280.974 96.530,281.015 96.570 C 281.055 96.611,281.275 96.501,281.502 96.326 C 281.730 96.151,281.842 96.008,281.750 96.009 C 281.658 96.010,281.439 96.120,281.262 96.254 M61.000 96.416 C 60.771 96.547,60.152 96.742,59.625 96.849 C 59.098 96.956,58.667 97.110,58.667 97.192 C 58.667 97.374,59.191 97.248,60.917 96.652 C 61.673 96.391,62.070 96.189,61.833 96.185 C 61.604 96.181,61.229 96.286,61.000 96.416 M208.550 96.851 C 208.256 96.936,207.966 97.087,207.904 97.187 C 207.773 97.400,208.350 97.250,209.000 96.903 C 209.478 96.647,209.318 96.629,208.550 96.851 M280.265 96.885 C 280.089 96.994,279.817 97.205,279.660 97.354 C 279.503 97.503,279.272 97.662,279.146 97.706 C 279.020 97.751,278.956 97.831,279.004 97.884 C 279.088 97.977,280.833 96.885,280.833 96.739 C 280.833 96.617,280.599 96.677,280.265 96.885 M57.375 97.544 C 56.985 97.637,56.667 97.787,56.667 97.875 C 56.667 98.057,57.285 97.930,58.065 97.588 C 58.672 97.322,58.377 97.303,57.375 97.544 M206.667 97.548 C 206.346 97.648,206.046 97.782,206.000 97.846 C 205.954 97.910,205.654 98.042,205.333 98.138 C 204.469 98.397,203.420 98.780,201.833 99.416 C 201.054 99.729,200.210 100.033,199.958 100.094 C 199.706 100.154,199.500 100.268,199.500 100.347 C 199.500 100.427,200.119 100.261,200.875 99.979 C 201.631 99.696,202.625 99.329,203.083 99.161 C 203.542 98.994,204.442 98.657,205.083 98.413 C 205.725 98.169,206.569 97.857,206.958 97.719 C 208.062 97.329,207.824 97.189,206.667 97.548 M55.208 98.223 C 54.727 98.317,54.333 98.452,54.333 98.523 C 54.333 98.594,54.070 98.701,53.748 98.761 C 53.426 98.822,53.122 98.938,53.072 99.019 C 52.935 99.241,53.078 99.211,54.814 98.655 C 56.953 97.969,57.051 97.862,55.208 98.223 M278.083 98.412 C 277.808 98.637,277.490 98.824,277.375 98.827 C 277.260 98.831,277.167 98.905,277.167 98.992 C 277.167 99.080,276.893 99.281,276.559 99.439 C 276.225 99.598,275.773 99.893,275.554 100.096 C 275.336 100.298,274.935 100.556,274.662 100.669 C 274.390 100.781,274.167 100.931,274.167 101.000 C 274.167 101.069,273.942 101.219,273.667 101.333 C 273.392 101.447,273.167 101.601,273.167 101.676 C 273.167 101.750,273.026 101.856,272.854 101.910 C 272.682 101.965,272.325 102.199,272.062 102.431 C 271.799 102.663,271.362 102.971,271.091 103.115 C 270.821 103.259,270.497 103.479,270.371 103.605 C 270.246 103.731,270.039 103.833,269.913 103.833 C 269.787 103.833,269.623 103.927,269.550 104.042 C 269.477 104.156,269.267 104.345,269.083 104.461 C 268.208 105.014,267.736 105.325,267.583 105.448 C 267.492 105.523,267.192 105.696,266.917 105.833 C 266.642 105.970,266.357 106.177,266.283 106.291 C 266.210 106.406,266.041 106.500,265.908 106.500 C 265.775 106.500,265.667 106.573,265.667 106.661 C 265.667 106.750,265.573 106.787,265.458 106.743 C 265.343 106.699,265.148 106.824,265.025 107.022 C 264.659 107.608,264.946 107.433,271.287 103.199 C 278.696 98.252,278.833 98.159,278.833 98.072 C 278.833 97.901,278.548 98.030,278.083 98.412 M376.585 98.202 C 376.253 98.395,376.023 98.570,375.589 98.958 C 375.462 99.073,375.307 99.167,375.246 99.167 C 375.185 99.167,374.927 99.314,374.674 99.495 C 374.420 99.676,374.159 99.770,374.094 99.705 C 374.028 99.640,373.902 99.717,373.813 99.876 C 373.723 100.036,373.541 100.167,373.408 100.167 C 373.275 100.167,373.167 100.243,373.167 100.337 C 373.167 100.431,372.960 100.598,372.708 100.709 C 372.456 100.819,372.212 100.949,372.167 100.997 C 371.932 101.243,370.707 102.000,370.545 102.000 C 370.442 102.000,370.258 102.097,370.137 102.216 C 370.016 102.334,369.017 102.948,367.917 103.579 C 365.631 104.891,365.755 104.811,365.849 104.905 C 365.889 104.944,366.858 104.421,368.002 103.741 C 369.147 103.061,370.196 102.452,370.333 102.388 C 370.569 102.277,371.695 101.588,373.000 100.756 C 373.321 100.552,374.357 99.908,375.302 99.327 C 376.919 98.332,377.367 97.993,377.052 98.005 C 376.977 98.008,376.768 98.097,376.585 98.202 M52.430 99.145 C 52.379 99.228,52.055 99.348,51.710 99.413 C 51.365 99.477,50.993 99.605,50.882 99.696 C 50.772 99.787,50.603 99.814,50.507 99.755 C 50.412 99.695,50.333 99.720,50.333 99.809 C 50.333 99.898,50.033 100.021,49.667 100.083 C 49.156 100.170,48.683 100.500,49.070 100.500 C 49.598 100.500,52.893 99.223,52.689 99.097 C 52.598 99.041,52.481 99.062,52.430 99.145 M48.083 100.623 C 47.479 100.775,46.952 101.008,47.032 101.087 C 47.075 101.130,47.517 101.021,48.013 100.845 C 48.842 100.551,48.883 100.421,48.083 100.623 M45.625 101.371 C 45.190 101.462,44.833 101.603,44.833 101.685 C 44.833 101.896,45.130 101.852,46.083 101.500 C 47.000 101.162,46.842 101.117,45.625 101.371 M43.542 102.044 C 43.152 102.137,42.833 102.270,42.833 102.339 C 42.833 102.408,42.346 102.561,41.750 102.679 C 41.154 102.798,40.667 102.949,40.667 103.016 C 40.667 103.083,40.367 103.188,40.000 103.250 C 39.633 103.312,39.333 103.431,39.333 103.515 C 39.333 103.711,39.058 103.783,41.994 102.825 C 44.983 101.850,45.562 101.558,43.542 102.044 M37.958 103.871 C 37.523 103.962,37.167 104.103,37.167 104.185 C 37.167 104.396,37.463 104.352,38.417 104.000 C 39.333 103.662,39.175 103.617,37.958 103.871 M310.667 103.730 C 310.667 103.870,313.299 105.177,315.177 105.969 C 317.088 106.776,317.582 106.934,317.432 106.691 C 317.371 106.593,317.062 106.464,316.744 106.405 C 316.427 106.345,316.167 106.230,316.167 106.148 C 316.167 106.067,316.110 106.012,316.042 106.027 C 315.898 106.058,315.212 105.791,314.239 105.325 C 313.866 105.146,313.473 105.000,313.364 105.000 C 313.255 105.000,313.167 104.937,313.167 104.860 C 313.167 104.783,312.867 104.630,312.500 104.520 C 312.133 104.410,311.833 104.257,311.833 104.179 C 311.833 104.102,311.702 104.001,311.542 103.955 C 311.381 103.909,311.119 103.817,310.958 103.751 C 310.798 103.685,310.667 103.676,310.667 103.730 M36.000 104.530 C 35.679 104.622,35.342 104.757,35.250 104.830 C 35.158 104.903,34.652 105.058,34.125 105.175 C 33.374 105.341,32.793 105.667,33.249 105.667 C 33.437 105.667,37.000 104.466,37.000 104.402 C 37.000 104.299,36.652 104.344,36.000 104.530 M365.083 105.185 C 364.900 105.276,364.450 105.526,364.083 105.743 C 363.717 105.959,362.948 106.383,362.375 106.686 C 361.802 106.988,361.333 107.299,361.333 107.377 C 361.333 107.456,361.390 107.488,361.458 107.449 C 361.527 107.409,362.502 106.875,363.625 106.260 C 364.748 105.646,365.667 105.111,365.667 105.072 C 365.667 104.962,365.452 105.004,365.083 105.185 M31.917 105.934 C 31.550 106.073,30.762 106.310,30.167 106.461 C 29.571 106.612,29.058 106.795,29.028 106.868 C 28.997 106.940,28.871 107.000,28.747 107.000 C 28.413 107.000,27.607 107.329,27.704 107.426 C 27.786 107.508,32.815 105.908,32.974 105.748 C 33.135 105.587,32.571 105.686,31.917 105.934 M261.667 105.730 C 261.667 105.950,264.232 107.675,264.467 107.613 C 264.680 107.557,264.661 107.534,264.393 107.519 C 264.196 107.509,263.992 107.388,263.940 107.250 C 263.887 107.112,263.747 107.000,263.628 107.000 C 263.510 107.000,263.231 106.779,263.008 106.510 C 262.785 106.240,262.551 106.052,262.487 106.091 C 262.423 106.131,262.278 106.051,262.165 105.915 C 261.978 105.690,261.667 105.574,261.667 105.730 M317.667 106.899 C 317.667 106.976,320.588 107.900,321.375 108.072 C 321.627 108.128,321.833 108.105,321.833 108.022 C 321.833 107.939,321.501 107.821,321.095 107.760 C 320.689 107.700,319.958 107.513,319.470 107.346 C 318.415 106.985,317.667 106.799,317.667 106.899 M26.500 107.695 C 25.750 107.907,25.385 108.237,26.083 108.072 C 26.756 107.914,27.646 107.527,27.333 107.529 C 27.196 107.529,26.821 107.604,26.500 107.695 M359.167 107.789 C 358.846 107.826,358.508 107.933,358.417 108.026 C 358.241 108.203,359.527 108.067,360.330 107.823 C 360.822 107.674,360.281 107.658,359.167 107.789 M24.417 108.361 C 24.142 108.454,23.692 108.627,23.417 108.745 C 23.142 108.864,22.635 109.010,22.292 109.071 C 21.948 109.132,21.667 109.261,21.667 109.359 C 21.667 109.456,21.760 109.501,21.875 109.458 C 21.990 109.415,22.833 109.137,23.750 108.841 C 24.667 108.544,25.448 108.272,25.486 108.234 C 25.615 108.109,24.921 108.192,24.417 108.361 M322.011 108.228 C 322.144 108.368,324.675 108.880,324.769 108.786 C 324.812 108.744,324.524 108.632,324.131 108.536 C 323.098 108.286,321.901 108.112,322.011 108.228 M355.537 108.411 C 353.834 108.641,353.151 108.940,354.750 108.755 C 356.054 108.604,358.037 108.207,357.500 108.204 C 357.271 108.203,356.388 108.296,355.537 108.411 M325.008 108.887 C 325.255 109.160,332.333 110.030,333.983 109.989 C 335.236 109.959,333.507 109.703,331.339 109.598 C 330.014 109.534,328.851 109.421,328.756 109.347 C 328.661 109.273,328.133 109.167,327.583 109.111 C 327.033 109.055,326.208 108.959,325.750 108.898 C 325.292 108.837,324.958 108.832,325.008 108.887 M350.305 109.066 C 349.235 109.168,348.297 109.317,348.221 109.396 C 348.063 109.561,350.229 109.398,352.333 109.087 C 354.152 108.818,353.021 108.806,350.305 109.066 M20.191 109.756 C 19.884 109.889,19.565 109.957,19.483 109.906 C 19.401 109.855,19.333 109.890,19.333 109.983 C 19.333 110.076,19.071 110.201,18.750 110.261 C 18.429 110.321,18.167 110.445,18.167 110.536 C 18.167 110.628,18.278 110.660,18.415 110.607 C 18.551 110.555,19.301 110.313,20.081 110.070 C 20.862 109.826,21.500 109.599,21.500 109.564 C 21.500 109.415,20.707 109.532,20.191 109.756 M343.883 109.658 C 342.855 109.716,341.955 109.824,341.883 109.900 C 341.746 110.041,345.084 109.891,347.000 109.669 L 348.083 109.544 346.917 109.549 C 346.275 109.552,344.910 109.601,343.883 109.658 M17.000 110.851 C 16.679 110.936,16.297 111.073,16.150 111.155 C 16.004 111.237,15.460 111.403,14.942 111.523 C 14.424 111.644,14.000 111.800,14.000 111.871 C 14.000 111.942,13.886 112.000,13.747 112.000 C 13.371 112.000,12.167 112.398,12.167 112.522 C 12.167 112.582,11.679 112.727,11.083 112.846 C 10.487 112.964,10.000 113.122,10.000 113.195 C 10.000 113.269,9.700 113.377,9.333 113.436 C 8.825 113.517,8.348 113.833,8.734 113.833 C 8.867 113.833,17.918 110.803,17.986 110.736 C 18.094 110.628,17.642 110.681,17.000 110.851 M7.375 114.044 C 6.985 114.137,6.667 114.280,6.667 114.360 C 6.667 114.527,7.344 114.390,8.083 114.074 C 8.677 113.820,8.360 113.807,7.375 114.044 M5.375 114.710 C 4.985 114.804,4.667 114.946,4.667 115.027 C 4.667 115.193,5.344 115.056,6.083 114.741 C 6.677 114.487,6.360 114.473,5.375 114.710 M3.500 115.361 C 2.750 115.573,2.385 115.904,3.083 115.739 C 3.756 115.580,4.646 115.194,4.333 115.195 C 4.196 115.196,3.821 115.271,3.500 115.361 M1.708 115.951 C 1.502 115.991,1.333 116.098,1.333 116.189 C 1.333 116.358,1.866 116.249,2.333 115.985 C 2.618 115.824,2.423 115.813,1.708 115.951 M0.474 116.208 C 0.373 116.373,0.277 121.834,0.375 121.834 C 0.444 121.833,0.500 120.668,0.500 119.245 C 0.500 117.102,0.543 116.640,0.749 116.561 C 0.886 116.508,0.957 116.398,0.906 116.316 C 0.822 116.180,0.536 116.108,0.474 116.208 M0.247 142.833 C 0.247 154.337,0.267 159.044,0.292 153.292 C 0.316 147.540,0.316 138.127,0.292 132.375 C 0.267 126.623,0.247 131.329,0.247 142.833 " stroke="none" fill="#dcdcdc" fill-rule="evenodd"></path></g></svg>